<?xml version="1.0" encoding="UTF-8" standalone="no"?>
<!-- Creator: CorelDRAW X6 -->

<svg
   xmlns:dc="http://purl.org/dc/elements/1.1/"
   xmlns:cc="http://creativecommons.org/ns#"
   xmlns:rdf="http://www.w3.org/1999/02/22-rdf-syntax-ns#"
   xmlns:svg="http://www.w3.org/2000/svg"
   xmlns="http://www.w3.org/2000/svg"
   xmlns:xlink="http://www.w3.org/1999/xlink"
   xmlns:sodipodi="http://sodipodi.sourceforge.net/DTD/sodipodi-0.dtd"
   xmlns:inkscape="http://www.inkscape.org/namespaces/inkscape"
   xml:space="preserve"
   width="688.98474"
   height="443.07019"
   version="1.1"
   style="fill-rule:evenodd"
   viewBox="0 0 19444.681 12504.426"
   id="svg2"
   inkscape:version="0.48.2 r9819"
   sodipodi:docname="Sem título-1.svg"><metadata
   id="metadata1415"><rdf:RDF><cc:Work
       rdf:about=""><dc:format>image/svg+xml</dc:format><dc:type
         rdf:resource="http://purl.org/dc/dcmitype/StillImage" /></cc:Work></rdf:RDF></metadata><sodipodi:namedview
   pagecolor="#ffffff"
   bordercolor="#666666"
   borderopacity="1"
   objecttolerance="10"
   gridtolerance="10"
   guidetolerance="10"
   inkscape:pageopacity="0"
   inkscape:pageshadow="2"
   inkscape:window-width="1920"
   inkscape:window-height="1018"
   id="namedview1413"
   showgrid="false"
   inkscape:snap-bbox="true"
   inkscape:bbox-paths="true"
   inkscape:bbox-nodes="true"
   inkscape:snap-bbox-edge-midpoints="true"
   inkscape:snap-bbox-midpoints="true"
   inkscape:object-nodes="true"
   inkscape:object-paths="true"
   inkscape:snap-intersection-paths="true"
   inkscape:snap-smooth-nodes="true"
   inkscape:snap-midpoints="true"
   inkscape:snap-object-midpoints="true"
   inkscape:snap-center="true"
   inkscape:zoom="0.66709664"
   inkscape:cx="319.30126"
   inkscape:cy="336.05192"
   inkscape:window-x="-8"
   inkscape:window-y="-8"
   inkscape:window-maximized="1"
   inkscape:current-layer="svg2"
   inkscape:snap-global="false"
   showguides="true"
   inkscape:guide-bbox="true"
   fit-margin-top="0"
   fit-margin-left="0"
   fit-margin-right="0"
   fit-margin-bottom="0" />
 <defs
   id="defs4"><linearGradient
   inkscape:collect="always"
   id="linearGradient5046"><stop
     style="stop-color:#000000;stop-opacity:1;"
     offset="0"
     id="stop5048" /><stop
     style="stop-color:#000000;stop-opacity:0;"
     offset="1"
     id="stop5050" /></linearGradient><linearGradient
   id="linearGradient5022"><stop
     style="stop-color:#000000;stop-opacity:1"
     offset="0"
     id="stop5024" /><stop
     id="stop5040"
     offset="0.16461533"
     style="stop-color:#4d4d4d;stop-opacity:1" /><stop
     id="stop5038"
     offset="0.27048078"
     style="stop-color:#000096;stop-opacity:1" /><stop
     id="stop5036"
     offset="0.38557693"
     style="stop-color:#969600;stop-opacity:1" /><stop
     id="stop5034"
     offset="0.49961537"
     style="stop-color:#000000;stop-opacity:1" /><stop
     id="stop5032"
     offset="0.61461538"
     style="stop-color:#008000;stop-opacity:1" /><stop
     id="stop5030"
     offset="0.73384613"
     style="stop-color:#960000;stop-opacity:1" /><stop
     style="stop-color:#4d4d4d;stop-opacity:1"
     offset="0.82615381"
     id="stop5042" /><stop
     style="stop-color:#000000;stop-opacity:1"
     offset="1"
     id="stop5026" /></linearGradient><linearGradient
   id="linearGradient4879"><stop
     style="stop-color:#c80000;stop-opacity:1;"
     offset="0"
     id="stop4881" /><stop
     id="stop4889"
     offset="0.79000002"
     style="stop-color:#c80000;stop-opacity:1;" /><stop
     id="stop4887"
     offset="0.88999999"
     style="stop-color:#ff9191;stop-opacity:1;" /><stop
     style="stop-color:#c80000;stop-opacity:1;"
     offset="1"
     id="stop4883" /></linearGradient><linearGradient
   id="linearGradient4867"><stop
     style="stop-color:#00a000;stop-opacity:1;"
     offset="0"
     id="stop4869" /><stop
     id="stop4877"
     offset="0.80000001"
     style="stop-color:#00a000;stop-opacity:1;" /><stop
     id="stop4875"
     offset="0.88999999"
     style="stop-color:#91ff91;stop-opacity:1;" /><stop
     style="stop-color:#00a000;stop-opacity:1;"
     offset="1"
     id="stop4871" /></linearGradient><linearGradient
   id="linearGradient4855"><stop
     style="stop-color:#000000;stop-opacity:1;"
     offset="0"
     id="stop4857" /><stop
     id="stop4865"
     offset="0.80000001"
     style="stop-color:#000000;stop-opacity:1;" /><stop
     id="stop4863"
     offset="0.89999998"
     style="stop-color:#646464;stop-opacity:1;" /><stop
     style="stop-color:#000000;stop-opacity:1;"
     offset="1"
     id="stop4859" /></linearGradient><linearGradient
   id="linearGradient4843"><stop
     style="stop-color:#c8c800;stop-opacity:1;"
     offset="0"
     id="stop4845" /><stop
     id="stop4853"
     offset="0.80000001"
     style="stop-color:#c8c800;stop-opacity:1;" /><stop
     id="stop4851"
     offset="0.88999999"
     style="stop-color:#ffff91;stop-opacity:1;" /><stop
     style="stop-color:#c8c800;stop-opacity:1;"
     offset="1"
     id="stop4847" /></linearGradient><linearGradient
   id="linearGradient4829"><stop
     style="stop-color:#0000c8;stop-opacity:1;"
     offset="0"
     id="stop4831" /><stop
     id="stop4839"
     offset="0.80000001"
     style="stop-color:#0000c8;stop-opacity:1;" /><stop
     id="stop4837"
     offset="0.89999998"
     style="stop-color:#9191ff;stop-opacity:1;" /><stop
     style="stop-color:#0000c8;stop-opacity:1;"
     offset="1"
     id="stop4833" /></linearGradient><linearGradient
   id="linearGradient4537"><stop
     style="stop-color:#c80000;stop-opacity:1;"
     offset="0"
     id="stop4539" /><stop
     id="stop4545"
     offset="0.5"
     style="stop-color:#ff9191;stop-opacity:1;" /><stop
     style="stop-color:#c80000;stop-opacity:1;"
     offset="1"
     id="stop4541" /></linearGradient><linearGradient
   id="linearGradient4523"><stop
     style="stop-color:#00a000;stop-opacity:1;"
     offset="0"
     id="stop4525" /><stop
     id="stop4531"
     offset="0.5"
     style="stop-color:#91ff91;stop-opacity:1;" /><stop
     style="stop-color:#00a000;stop-opacity:1;"
     offset="1"
     id="stop4527" /></linearGradient><linearGradient
   id="linearGradient4509"><stop
     style="stop-color:#000000;stop-opacity:1;"
     offset="0"
     id="stop4511" /><stop
     id="stop4517"
     offset="0.5"
     style="stop-color:#646464;stop-opacity:1;" /><stop
     style="stop-color:#000000;stop-opacity:1;"
     offset="1"
     id="stop4513" /></linearGradient><linearGradient
   id="linearGradient4495"><stop
     style="stop-color:#bcc800;stop-opacity:1;"
     offset="0"
     id="stop4497" /><stop
     id="stop4503"
     offset="0.5"
     style="stop-color:#f9ff91;stop-opacity:1;" /><stop
     style="stop-color:#bcc800;stop-opacity:1;"
     offset="1"
     id="stop4499" /></linearGradient><linearGradient
   id="linearGradient5819"><stop
     style="stop-color:#0000c8;stop-opacity:1;"
     offset="0"
     id="stop5821" /><stop
     id="stop5827"
     offset="0.5"
     style="stop-color:#9191ff;stop-opacity:1;" /><stop
     style="stop-color:#0000c8;stop-opacity:1;"
     offset="1"
     id="stop5823" /></linearGradient>
  <style
   type="text/css"
   id="style6">
   
    .fil35 {fill:none}
    .fil82 {fill:black}
    .fil153 {fill:#000103}
    .fil105 {fill:#000205}
    .fil70 {fill:#000301}
    .fil102 {fill:#000308}
    .fil152 {fill:#00040A}
    .fil69 {fill:#000502}
    .fil106 {fill:#00060F}
    .fil103 {fill:#000814}
    .fil91 {fill:#000A04}
    .fil68 {fill:#000D05}
    .fil90 {fill:#001207}
    .fil67 {fill:#001408}
    .fil66 {fill:#001F0D}
    .fil92 {fill:#00210E}
    .fil65 {fill:#002610}
    .fil89 {fill:#002B12}
    .fil64 {fill:#002E13}
    .fil63 {fill:#003817}
    .fil62 {fill:#00401B}
    .fil93 {fill:#00421B}
    .fil61 {fill:#00471E}
    .fil60 {fill:#004F21}
    .fil107 {fill:#010B1A}
    .fil104 {fill:#010C1C}
    .fil108 {fill:#010E21}
    .fil151 {fill:#011129}
    .fil109 {fill:#01122B}
    .fil150 {fill:#011533}
    .fil110 {fill:#011636}
    .fil149 {fill:#011738}
    .fil111 {fill:#01193D}
    .fil148 {fill:#011A40}
    .fil112 {fill:#011D47}
    .fil147 {fill:#02214F}
    .fil113 {fill:#022252}
    .fil146 {fill:#022354}
    .fil114 {fill:#022457}
    .fil135 {fill:#022559}
    .fil145 {fill:#02265C}
    .fil39 {fill:#030000}
    .fil154 {fill:#030300}
    .fil88 {fill:#030303}
    .fil59 {fill:#035726}
    .fil87 {fill:#050505}
    .fil94 {fill:#055928}
    .fil115 {fill:#062A61}
    .fil86 {fill:#080808}
    .fil196 {fill:#085C2B}
    .fil58 {fill:#095E2D}
    .fil5 {fill:#0A0102}
    .fil155 {fill:#0A0901}
    .fil85 {fill:#0A0A0A}
    .fil116 {fill:#0C3169}
    .fil84 {fill:#0D0D0D}
    .fil134 {fill:#0D336B}
    .fil95 {fill:#0E6331}
    .fil83 {fill:#0F0F0F}
    .fil57 {fill:#0F6633}
    .fil144 {fill:#123870}
    .fil117 {fill:#133870}
    .fil56 {fill:#156B39}
    .fil143 {fill:#163B73}
    .fil6 {fill:#1A0304}
    .fil118 {fill:#1A4078}
    .fil156 {fill:#1C1A02}
    .fil55 {fill:#1C703F}
    .fil142 {fill:#1D427A}
    .fil96 {fill:#1F7342}
    .fil119 {fill:#234880}
    .fil54 {fill:#247847}
    .fil7 {fill:#260506}
    .fil215 {fill:#264B82}
    .fil141 {fill:#284D85}
    .fil157 {fill:#2B2803}
    .fil120 {fill:#2B5087}
    .fil97 {fill:#2B7D4D}
    .fil53 {fill:#2C7D4E}
    .fil140 {fill:#31558C}
    .fil197 {fill:#317D50}
    .fil52 {fill:#338053}
    .fil121 {fill:#34578C}
    .fil139 {fill:#35588C}
    .fil8 {fill:#360709}
    .fil133 {fill:#385A8C}
    .fil51 {fill:#388056}
    .fil71 {fill:#3B0809}
    .fil122 {fill:#3C5D8F}
    .fil158 {fill:#3D3904}
    .fil50 {fill:#3D825A}
    .fil123 {fill:#40608F}
    .fil49 {fill:#44825E}
    .fil9 {fill:#45090B}
    .fil124 {fill:#456491}
    .fil138 {fill:#486591}
    .fil98 {fill:#488561}
    .fil48 {fill:#498562}
    .fil99 {fill:#4C8564}
    .fil125 {fill:#4D6891}
    .fil47 {fill:#4E8565}
    .fil159 {fill:#4F4A05}
    .fil46 {fill:#518768}
    .fil126 {fill:#536D94}
    .fil10 {fill:#540B0D}
    .fil137 {fill:#566F94}
    .fil45 {fill:#56876B}
    .fil44 {fill:#58876C}
    .fil213 {fill:#595305}
    .fil127 {fill:#597094}
    .fil128 {fill:#5C7396}
    .fil160 {fill:#5E5806}
    .fil136 {fill:#5F7596}
    .fil43 {fill:#5F8A71}
    .fil42 {fill:#608A72}
    .fil129 {fill:#627796}
    .fil11 {fill:#630D10}
    .fil130 {fill:#637796}
    .fil41 {fill:#648A74}
    .fil40 {fill:#688C77}
    .fil131 {fill:#6A7D99}
    .fil212 {fill:#6B6406}
    .fil132 {fill:#6D7E99}
    .fil72 {fill:#6E0E11}
    .fil12 {fill:#700E12}
    .fil161 {fill:#706907}
    .fil101 {fill:#708099}
    .fil100 {fill:#74849C}
    .fil73 {fill:#781013}
    .fil211 {fill:#7D7507}
    .fil13 {fill:#801114}
    .fil162 {fill:#807808}
    .fil74 {fill:#871115}
    .fil195 {fill:#877F08}
    .fil14 {fill:#8C1216}
    .fil210 {fill:#8C8308}
    .fil38 {fill:#8F1317}
    .fil163 {fill:#918809}
    .fil75 {fill:#941317}
    .fil15 {fill:#99191D}
    .fil209 {fill:#998F09}
    .fil76 {fill:#9E1D21}
    .fil164 {fill:#9E9409}
    .fil194 {fill:#A19709}
    .fil16 {fill:#A62328}
    .fil37 {fill:#A82529}
    .fil208 {fill:#A89E0D}
    .fil165 {fill:#ADA311}
    .fil17 {fill:#B53135}
    .fil207 {fill:#B5AA17}
    .fil166 {fill:#BAAF1A}
    .fil18 {fill:#BF3B40}
    .fil206 {fill:#C2B721}
    .fil193 {fill:#C7BC25}
    .fil19 {fill:#C9464B}
    .fil167 {fill:#CCC12B}
    .fil214 {fill:#CF4C51}
    .fil192 {fill:#CFC42D}
    .fil205 {fill:#D4C933}
    .fil20 {fill:#D6565A}
    .fil168 {fill:#D6CB36}
    .fil191 {fill:#DBD03B}
    .fil77 {fill:#DE5D61}
    .fil21 {fill:#DE6266}
    .fil78 {fill:#DE686C}
    .fil22 {fill:#E06B6F}
    .fil79 {fill:#E07073}
    .fil23 {fill:#E07276}
    .fil80 {fill:#E0777A}
    .fil204 {fill:#E0D53E}
    .fil24 {fill:#E37B7E}
    .fil81 {fill:#E37F83}
    .fil25 {fill:#E38487}
    .fil169 {fill:#E3D844}
    .fil26 {fill:#E68D90}
    .fil27 {fill:#E69396}
    .fil28 {fill:#E8999B}
    .fil29 {fill:#E8A0A3}
    .fil30 {fill:#E8A2A4}
    .fil216 {fill:#E8DE4B}
    .fil36 {fill:#EBA7A9}
    .fil31 {fill:#EBABAE}
    .fil32 {fill:#EBAEB0}
    .fil33 {fill:#EBB3B5}
    .fil34 {fill:#EDB6B8}
    .fil203 {fill:#EDE24E}
    .fil170 {fill:#F0E654}
    .fil202 {fill:#F5EB58}
    .fil190 {fill:#FAF05F}
    .fil171 {fill:#FAF061}
    .fil189 {fill:#FAF067}
    .fil185 {fill:#FAF16C}
    .fil172 {fill:#FAF16E}
    .fil201 {fill:#FAF173}
    .fil173 {fill:#FAF176}
    .fil200 {fill:#FAF27B}
    .fil174 {fill:#FAF27D}
    .fil199 {fill:#FAF282}
    .fil188 {fill:#FAF284}
    .fil175 {fill:#FAF289}
    .fil187 {fill:#FAF38E}
    .fil176 {fill:#FAF391}
    .fil177 {fill:#FAF499}
    .fil178 {fill:#FAF49E}
    .fil198 {fill:#FAF4A0}
    .fil179 {fill:#FAF4A5}
    .fil180 {fill:#FAF5AA}
    .fil186 {fill:#FCF7AE}
    .fil181 {fill:#FCF7B3}
    .fil182 {fill:#FCF7B6}
    .fil183 {fill:#FCF8BB}
    .fil184 {fill:#FCF8BD}
    .fil3 {fill:#007C33;fill-rule:nonzero}
    .fil2 {fill:#02398B;fill-rule:nonzero}
    .fil4 {fill:#DD1B23;fill-rule:nonzero}
    .fil1 {fill:#FAEC0F;fill-rule:nonzero}
    .fil0 {fill:black;fill-rule:nonzero}
   
  </style>
 
  
  
  
  
 
   
   
   
   
   
   
   
   
   
   
   
   
   
   
   
   
   
   
   
   
   
   
   
   
   
   
   
   
   
   
   
   
   
   
   
   
   
   
   
   
   
   
   
   
   
   
   
   
   
   
   
   
   
   
   
   
   
   
   
   
   
   
   
   
   
   
   
   
   
   
   
   
   
   
   
   
   
   
   
   
   
   
   
   
   
   
   
   
   
   
   
   
   
   
   
   
   
   
   
   
   
   
   
   
   
   
   
   
   
   
   
   
   
   
   
   
   
   
   
   
   
   
   
   
   
   
   
   
   
   
   
   
   
   
   
   
   
   
   
   
   
   
   
   
   
   
   
   
   
   
   
   
   
   
   
   
   
   
   
   
   
   
   
   
   
   
   
   
   
   
   
   
   
   
   
   
   
   
   
   
   
   
   
   
   
   
   
   
   
   
   
   
   
   
   
   
   
   
   
   
   
   
   
   
   
   
   
   
   
   
   
   
   
   
   
   
   
   
   
   
   
   
   
   
   
   
   
   
   
   
   
   
   
   
   
   
   
   
   
   
   
   
   
   
   
   
   
   
   
   
   
   
   
   
   
   
   
   
   
   
   
   
   
   
   
   
   
   
   
   
   
   
   
   
   
   
   
   
   
   
   
   
   
   
   
   
   
   
   
   
   
   
   
   
   
   
   
   
   
   
   
   
   
   
   
   
   
   
   
   
   
   
   
   
   
   
   
   
   
   
   
   
   
   
   
   
   
   
   
   
   
   
   
   
   
   
   
   
   
   
   
   
   
   
   
   
   
   
   
   
   
   
   
   
   
   
   
   
   
   
   
   
   
   
   
   
   
   
   
   
   
   
   
   
   
   
   
   
   
   
   
   
   
   
   
   
   
   
   
   
   
   
   
   
   
   
   
   
   
   
   
   
   
   
   
   
   
   
   
   
   
   
   
   
   
   
   
   
   
   
   
   
   
   
   
   
   
   
   
   
   
   
   
   
   
   
   
   
   
   
   
   
   
   
   
   
   
   
   
   
   
   
   
   
   
   
   
   
   
   
   
   
   
   
   
   
   
   
   
   
   
   
   
   
   
   
   
   
   
   
   
   
   
   
   
   
   
   
   
   
   
   
   
   
   
   
   
   
   
   
   
   
   
   
   
   
   
   
   
   
   
   
   
   
   
   
   
   
   
   
   
   
   
   
   
   
   
   
   
   
   
   
   
   
   
   
   
   
   
   
   
   
   
   
   
   
   
   
   
   
   
   
   
   
   
   
   
   
   
   
   
   
   
   
   
   
   
   
   
   
   
   
   
   
   
   
   
   
   
   
   
   
   
   
   
   
   
   
   
   
   
   
   
   
   
   
   
   
   
   
   
   
   
   
   
   
   
   
   
   
   
   
   
   
   
   
   
   
   
   
   
   
   
   
   
   
   
   
   
   
   
   
   
   
   
   
   
   
   
   
   
   
   
   
   
   
   
   
   
   
   
   
   
   
   
   
   
   
   
   
   
   
   
   
   
   
   
   
   
   
   
   
   
   
   
   
   
   
   
   
   
   
   
   
   
   
   
   
   
   
  
   
   
   
   
   
  
   
   
   
   
   
  <linearGradient
   inkscape:collect="always"
   xlink:href="#linearGradient5819"
   id="linearGradient4493"
   x1="147.53125"
   y1="198.14062"
   x2="259.875"
   y2="198.14062"
   gradientUnits="userSpaceOnUse" /><linearGradient
   inkscape:collect="always"
   xlink:href="#linearGradient4495"
   id="linearGradient4505"
   x1="6008.1943"
   y1="8762.5605"
   x2="9952.25"
   y2="8762.5605"
   gradientUnits="userSpaceOnUse" /><linearGradient
   inkscape:collect="always"
   xlink:href="#linearGradient4509"
   id="linearGradient4521"
   x1="8631.0977"
   y1="5591.9688"
   x2="11773.466"
   y2="5591.9688"
   gradientUnits="userSpaceOnUse"
   gradientTransform="matrix(0.03543307,0,0,0.03543307,4.9321338e-6,0)" /><linearGradient
   inkscape:collect="always"
   xlink:href="#linearGradient4523"
   id="linearGradient4533"
   x1="10453.695"
   y1="8762.5605"
   x2="14397.751"
   y2="8762.5605"
   gradientUnits="userSpaceOnUse" /><linearGradient
   inkscape:collect="always"
   xlink:href="#linearGradient4537"
   id="linearGradient4547"
   x1="12675.695"
   y1="7374.3784"
   x2="16619.752"
   y2="7374.3784"
   gradientUnits="userSpaceOnUse" /><linearGradient
   inkscape:collect="always"
   xlink:href="#linearGradient4537"
   id="linearGradient4549"
   x1="13061.987"
   y1="5591.9688"
   x2="16232.577"
   y2="5591.9688"
   gradientUnits="userSpaceOnUse" /><linearGradient
   inkscape:collect="always"
   xlink:href="#linearGradient5819"
   id="linearGradient4601"
   gradientUnits="userSpaceOnUse"
   x1="133.84375"
   y1="261.29688"
   x2="273.59375"
   y2="261.29688" /><linearGradient
   inkscape:collect="always"
   xlink:href="#linearGradient4495"
   id="linearGradient4608"
   gradientUnits="userSpaceOnUse"
   x1="7980.2266"
   y1="8935.8623"
   x2="7980.6372"
   y2="5985.8389"
   gradientTransform="matrix(0.03543307,0,0,0.03543307,4.9321338e-6,0)" /><linearGradient
   inkscape:collect="always"
   xlink:href="#linearGradient4509"
   id="linearGradient4638"
   gradientUnits="userSpaceOnUse"
   gradientTransform="matrix(0.03543307,0,0,0.03543307,4.9321338e-6,0)"
   x1="8230.6953"
   y1="7374.3789"
   x2="12174.751"
   y2="7374.3789" /><linearGradient
   inkscape:collect="always"
   xlink:href="#linearGradient4523"
   id="linearGradient4733"
   gradientUnits="userSpaceOnUse"
   gradientTransform="matrix(0.03543307,0,0,0.03543307,4.9321338e-6,0)"
   x1="10839.987"
   y1="6980.1509"
   x2="14010.577"
   y2="6980.1509" /><linearGradient
   inkscape:collect="always"
   xlink:href="#linearGradient4495"
   id="linearGradient4742"
   gradientUnits="userSpaceOnUse"
   gradientTransform="matrix(0.03543307,0,0,0.03543307,4.9321338e-6,0)"
   x1="6394.4858"
   y1="6980.1509"
   x2="9565.0762"
   y2="6980.1509" /><linearGradient
   inkscape:collect="always"
   xlink:href="#linearGradient4495"
   id="linearGradient4797"
   gradientUnits="userSpaceOnUse"
   gradientTransform="matrix(0.03543307,0,0,0.03543307,4.9321338e-6,0)"
   x1="7980.2266"
   y1="8935.8623"
   x2="7980.6372"
   y2="5985.8389" /><linearGradient
   inkscape:collect="always"
   xlink:href="#linearGradient4495"
   id="linearGradient4799"
   gradientUnits="userSpaceOnUse"
   gradientTransform="matrix(0.03543307,0,0,0.03543307,4.9321338e-6,0)"
   x1="6394.4858"
   y1="6980.1509"
   x2="9565.0762"
   y2="6980.1509" /><linearGradient
   inkscape:collect="always"
   xlink:href="#linearGradient4509"
   id="linearGradient4801"
   gradientUnits="userSpaceOnUse"
   gradientTransform="matrix(0.03543307,0,0,0.03543307,-157.49725,-0.00285535)"
   x1="14648.138"
   y1="4597.6572"
   x2="14647.256"
   y2="7547.7612" /><linearGradient
   inkscape:collect="always"
   xlink:href="#linearGradient4537"
   id="linearGradient4803"
   gradientUnits="userSpaceOnUse"
   x1="14648.138"
   y1="4597.6572"
   x2="14748.269"
   y2="7545.917" /><linearGradient
   inkscape:collect="always"
   xlink:href="#linearGradient4537"
   id="linearGradient4805"
   gradientUnits="userSpaceOnUse"
   x1="12675.695"
   y1="7374.3784"
   x2="16619.752"
   y2="7374.3784" /><linearGradient
   inkscape:collect="always"
   xlink:href="#linearGradient4537"
   id="linearGradient4807"
   gradientUnits="userSpaceOnUse"
   x1="13061.987"
   y1="5591.9688"
   x2="16232.577"
   y2="5591.9688" /><linearGradient
   inkscape:collect="always"
   xlink:href="#linearGradient4495"
   id="linearGradient4809"
   gradientUnits="userSpaceOnUse"
   x1="6008.1943"
   y1="8762.5605"
   x2="9952.25"
   y2="8762.5605" /><linearGradient
   inkscape:collect="always"
   xlink:href="#linearGradient5819"
   id="linearGradient4811"
   gradientUnits="userSpaceOnUse"
   gradientTransform="matrix(0.03543307,0,0,0.03543307,4.9321338e-6,0)"
   x1="5749.396"
   y1="7547.6807"
   x2="5749.811"
   y2="4597.6572" /><linearGradient
   inkscape:collect="always"
   xlink:href="#linearGradient5819"
   id="linearGradient4813"
   gradientUnits="userSpaceOnUse"
   x1="133.84375"
   y1="261.29688"
   x2="273.59375"
   y2="261.29688" /><linearGradient
   inkscape:collect="always"
   xlink:href="#linearGradient5819"
   id="linearGradient4815"
   gradientUnits="userSpaceOnUse"
   x1="147.53125"
   y1="198.14062"
   x2="259.875"
   y2="198.14062" /><linearGradient
   inkscape:collect="always"
   xlink:href="#linearGradient4509"
   id="linearGradient4817"
   gradientUnits="userSpaceOnUse"
   gradientTransform="matrix(0.03543307,0,0,0.03543307,4.9321338e-6,0)"
   x1="8230.6953"
   y1="7374.3789"
   x2="12174.751"
   y2="7374.3789" /><linearGradient
   inkscape:collect="always"
   xlink:href="#linearGradient4509"
   id="linearGradient4819"
   gradientUnits="userSpaceOnUse"
   gradientTransform="matrix(0.03543307,0,0,0.03543307,4.9321338e-6,0)"
   x1="8631.0977"
   y1="5591.9688"
   x2="11773.466"
   y2="5591.9688" /><linearGradient
   inkscape:collect="always"
   xlink:href="#linearGradient4523"
   id="linearGradient4821"
   gradientUnits="userSpaceOnUse"
   x1="10453.695"
   y1="8762.5605"
   x2="14397.751"
   y2="8762.5605" /><linearGradient
   inkscape:collect="always"
   xlink:href="#linearGradient4523"
   id="linearGradient4823"
   gradientUnits="userSpaceOnUse"
   gradientTransform="matrix(0.03543307,0,0,0.03543307,4.9321338e-6,0)"
   x1="10839.987"
   y1="6980.1509"
   x2="14010.577"
   y2="6980.1509" /><linearGradient
   inkscape:collect="always"
   xlink:href="#linearGradient4523"
   id="linearGradient4825"
   gradientUnits="userSpaceOnUse"
   gradientTransform="matrix(0.03543307,0,0,0.03543307,4.9321338e-6,0)"
   x1="12426.138"
   y1="5985.8389"
   x2="12426.138"
   y2="8936.248" /><linearGradient
   inkscape:collect="always"
   xlink:href="#linearGradient4495"
   id="linearGradient4827"
   gradientUnits="userSpaceOnUse"
   gradientTransform="matrix(0.03543307,0,0,0.03543307,4.9321338e-6,0)"
   x1="7980.2266"
   y1="8935.8623"
   x2="7980.6372"
   y2="5985.8389" /><radialGradient
   inkscape:collect="always"
   xlink:href="#linearGradient4829"
   id="radialGradient4835"
   cx="203.71875"
   cy="216.66418"
   fx="203.71875"
   fy="216.66418"
   r="69.375"
   gradientTransform="matrix(1,0,0,0.75337838,0,53.066037)"
   gradientUnits="userSpaceOnUse" /><radialGradient
   inkscape:collect="always"
   xlink:href="#linearGradient4843"
   id="radialGradient4849"
   cx="282.20438"
   cy="264.35938"
   fx="282.20438"
   fy="264.35938"
   r="69.328125"
   gradientTransform="matrix(1,0,0,0.75388776,0,65.062077)"
   gradientUnits="userSpaceOnUse" /><radialGradient
   inkscape:collect="always"
   xlink:href="#linearGradient4855"
   id="radialGradient4861"
   cx="361.84311"
   cy="216.5779"
   fx="361.84311"
   fy="216.5779"
   r="69.328125"
   gradientTransform="matrix(1,0,0,0.75388776,0,52.956432)"
   gradientUnits="userSpaceOnUse" /><radialGradient
   inkscape:collect="always"
   xlink:href="#linearGradient4867"
   id="radialGradient4873"
   cx="440.23438"
   cy="265.85068"
   fx="440.23438"
   fy="265.85068"
   r="69.328125"
   gradientTransform="matrix(1,0,0,0.75388776,0,65.062077)"
   gradientUnits="userSpaceOnUse" /><radialGradient
   inkscape:collect="always"
   xlink:href="#linearGradient4879"
   id="radialGradient4885"
   cx="14625.701"
   cy="6122.4912"
   fx="14625.701"
   fy="6122.4912"
   r="1957.917"
   gradientTransform="matrix(1,0,0,0.75345628,0,1497.226)"
   gradientUnits="userSpaceOnUse" /><linearGradient
   inkscape:collect="always"
   xlink:href="#linearGradient4495"
   id="linearGradient4982"
   gradientUnits="userSpaceOnUse"
   gradientTransform="matrix(0.03543307,0,0,0.03543307,4.9321338e-6,0)"
   x1="7980.2266"
   y1="8935.8623"
   x2="7980.6372"
   y2="5985.8389" /><linearGradient
   inkscape:collect="always"
   xlink:href="#linearGradient4495"
   id="linearGradient4984"
   gradientUnits="userSpaceOnUse"
   gradientTransform="matrix(0.03543307,0,0,0.03543307,4.9321338e-6,0)"
   x1="6394.4858"
   y1="6980.1509"
   x2="9565.0762"
   y2="6980.1509" /><radialGradient
   inkscape:collect="always"
   xlink:href="#linearGradient4855"
   id="radialGradient4986"
   gradientUnits="userSpaceOnUse"
   gradientTransform="matrix(1,0,0,0.75388776,0,52.956432)"
   cx="361.84311"
   cy="216.5779"
   fx="361.84311"
   fy="216.5779"
   r="69.328125" /><radialGradient
   inkscape:collect="always"
   xlink:href="#linearGradient4879"
   id="radialGradient4988"
   gradientUnits="userSpaceOnUse"
   gradientTransform="matrix(1,0,0,0.75345628,0,1497.226)"
   cx="14625.701"
   cy="6122.4912"
   fx="14625.701"
   fy="6122.4912"
   r="1957.917" /><linearGradient
   inkscape:collect="always"
   xlink:href="#linearGradient4537"
   id="linearGradient4990"
   gradientUnits="userSpaceOnUse"
   x1="12689.806"
   y1="7374.3784"
   x2="16605.641"
   y2="7374.3784" /><linearGradient
   inkscape:collect="always"
   xlink:href="#linearGradient4537"
   id="linearGradient4992"
   gradientUnits="userSpaceOnUse"
   x1="13061.987"
   y1="5591.9688"
   x2="16232.577"
   y2="5591.9688" /><linearGradient
   inkscape:collect="always"
   xlink:href="#linearGradient4495"
   id="linearGradient4994"
   gradientUnits="userSpaceOnUse"
   x1="6008.1943"
   y1="8762.5605"
   x2="9952.25"
   y2="8762.5605" /><radialGradient
   inkscape:collect="always"
   xlink:href="#linearGradient4829"
   id="radialGradient4996"
   gradientUnits="userSpaceOnUse"
   gradientTransform="matrix(1,0,0,0.75337838,0,53.066037)"
   cx="203.71875"
   cy="216.66418"
   fx="203.71875"
   fy="216.66418"
   r="69.375" /><linearGradient
   inkscape:collect="always"
   xlink:href="#linearGradient5819"
   id="linearGradient4998"
   gradientUnits="userSpaceOnUse"
   x1="134.34375"
   y1="261.29688"
   x2="273.09381"
   y2="261.29688" /><linearGradient
   inkscape:collect="always"
   xlink:href="#linearGradient5819"
   id="linearGradient5000"
   gradientUnits="userSpaceOnUse"
   x1="147.53125"
   y1="198.14062"
   x2="259.875"
   y2="198.14062" /><linearGradient
   inkscape:collect="always"
   xlink:href="#linearGradient4509"
   id="linearGradient5002"
   gradientUnits="userSpaceOnUse"
   gradientTransform="matrix(0.03543307,0,0,0.03543307,4.9321338e-6,0)"
   x1="8230.6953"
   y1="7374.3789"
   x2="12174.751"
   y2="7374.3789" /><linearGradient
   inkscape:collect="always"
   xlink:href="#linearGradient4509"
   id="linearGradient5004"
   gradientUnits="userSpaceOnUse"
   gradientTransform="matrix(0.03543307,0,0,0.03543307,4.9321338e-6,0)"
   x1="8631.0977"
   y1="5591.9688"
   x2="11773.466"
   y2="5591.9688" /><linearGradient
   inkscape:collect="always"
   xlink:href="#linearGradient4523"
   id="linearGradient5006"
   gradientUnits="userSpaceOnUse"
   x1="10453.695"
   y1="8762.5605"
   x2="14397.751"
   y2="8762.5605" /><linearGradient
   inkscape:collect="always"
   xlink:href="#linearGradient4523"
   id="linearGradient5008"
   gradientUnits="userSpaceOnUse"
   gradientTransform="matrix(0.03543307,0,0,0.03543307,4.9321338e-6,0)"
   x1="10839.987"
   y1="6980.1509"
   x2="14010.577"
   y2="6980.1509" /><radialGradient
   inkscape:collect="always"
   xlink:href="#linearGradient4867"
   id="radialGradient5010"
   gradientUnits="userSpaceOnUse"
   gradientTransform="matrix(1,0,0,0.75388776,0,65.062077)"
   cx="440.23438"
   cy="265.85068"
   fx="440.23438"
   fy="265.85068"
   r="69.328125" /><radialGradient
   inkscape:collect="always"
   xlink:href="#linearGradient4843"
   id="radialGradient5012"
   gradientUnits="userSpaceOnUse"
   gradientTransform="matrix(1,0,0,0.75388776,0,65.062077)"
   cx="282.20438"
   cy="264.35938"
   fx="282.20438"
   fy="264.35938"
   r="69.328125" /><filter
   inkscape:collect="always"
   id="filter5018"
   color-interpolation-filters="sRGB"><feGaussianBlur
     inkscape:collect="always"
     stdDeviation="137.1137"
     id="feGaussianBlur5020" /></filter><linearGradient
   inkscape:collect="always"
   xlink:href="#linearGradient5022"
   id="linearGradient5028"
   x1="27.559389"
   y1="255.25984"
   x2="716.54413"
   y2="255.25984"
   gradientUnits="userSpaceOnUse"
   gradientTransform="matrix(28.222223,0,0,28.222223,8.59375e-4,0)" /><linearGradient
   inkscape:collect="always"
   xlink:href="#linearGradient5046"
   id="linearGradient5052"
   x1="10679.617"
   y1="13426.298"
   x2="10589.873"
   y2="891.95746"
   gradientUnits="userSpaceOnUse"
   gradientTransform="translate(0,-14408)" /><linearGradient
   inkscape:collect="always"
   xlink:href="#linearGradient5022"
   id="linearGradient5077"
   gradientUnits="userSpaceOnUse"
   gradientTransform="matrix(28.222223,0,0,28.222223,8.59375e-4,0)"
   x1="27.559389"
   y1="255.25984"
   x2="716.54413"
   y2="255.25984" /><linearGradient
   inkscape:collect="always"
   xlink:href="#linearGradient5046"
   id="linearGradient5079"
   gradientUnits="userSpaceOnUse"
   gradientTransform="translate(0,-14408)"
   x1="10679.617"
   y1="13426.298"
   x2="10589.873"
   y2="891.95746" /><linearGradient
   inkscape:collect="always"
   xlink:href="#linearGradient4495"
   id="linearGradient5081"
   gradientUnits="userSpaceOnUse"
   gradientTransform="matrix(0.03543307,0,0,0.03543307,4.9321338e-6,0)"
   x1="7980.2266"
   y1="8935.8623"
   x2="7980.6372"
   y2="5985.8389" /><linearGradient
   inkscape:collect="always"
   xlink:href="#linearGradient4495"
   id="linearGradient5083"
   gradientUnits="userSpaceOnUse"
   gradientTransform="matrix(0.03543307,0,0,0.03543307,4.9321338e-6,0)"
   x1="6394.4858"
   y1="6980.1509"
   x2="9565.0762"
   y2="6980.1509" /><radialGradient
   inkscape:collect="always"
   xlink:href="#linearGradient4855"
   id="radialGradient5085"
   gradientUnits="userSpaceOnUse"
   gradientTransform="matrix(1,0,0,0.75388776,0,52.956432)"
   cx="361.84311"
   cy="216.5779"
   fx="361.84311"
   fy="216.5779"
   r="69.328125" /><radialGradient
   inkscape:collect="always"
   xlink:href="#linearGradient4879"
   id="radialGradient5087"
   gradientUnits="userSpaceOnUse"
   gradientTransform="matrix(1,0,0,0.75345628,0,1497.226)"
   cx="14625.701"
   cy="6122.4912"
   fx="14625.701"
   fy="6122.4912"
   r="1957.917" /><linearGradient
   inkscape:collect="always"
   xlink:href="#linearGradient4537"
   id="linearGradient5089"
   gradientUnits="userSpaceOnUse"
   x1="12689.806"
   y1="7374.3784"
   x2="16605.641"
   y2="7374.3784" /><linearGradient
   inkscape:collect="always"
   xlink:href="#linearGradient4537"
   id="linearGradient5091"
   gradientUnits="userSpaceOnUse"
   x1="13061.987"
   y1="5591.9688"
   x2="16232.577"
   y2="5591.9688" /><linearGradient
   inkscape:collect="always"
   xlink:href="#linearGradient4495"
   id="linearGradient5093"
   gradientUnits="userSpaceOnUse"
   x1="6008.1943"
   y1="8762.5605"
   x2="9952.25"
   y2="8762.5605" /><radialGradient
   inkscape:collect="always"
   xlink:href="#linearGradient4829"
   id="radialGradient5095"
   gradientUnits="userSpaceOnUse"
   gradientTransform="matrix(1,0,0,0.75337838,0,53.066037)"
   cx="203.71875"
   cy="216.66418"
   fx="203.71875"
   fy="216.66418"
   r="69.375" /><linearGradient
   inkscape:collect="always"
   xlink:href="#linearGradient5819"
   id="linearGradient5097"
   gradientUnits="userSpaceOnUse"
   x1="134.34375"
   y1="261.29688"
   x2="273.09381"
   y2="261.29688" /><linearGradient
   inkscape:collect="always"
   xlink:href="#linearGradient5819"
   id="linearGradient5099"
   gradientUnits="userSpaceOnUse"
   x1="147.53125"
   y1="198.14062"
   x2="259.875"
   y2="198.14062" /><linearGradient
   inkscape:collect="always"
   xlink:href="#linearGradient4509"
   id="linearGradient5101"
   gradientUnits="userSpaceOnUse"
   gradientTransform="matrix(0.03543307,0,0,0.03543307,4.9321338e-6,0)"
   x1="8230.6953"
   y1="7374.3789"
   x2="12174.751"
   y2="7374.3789" /><linearGradient
   inkscape:collect="always"
   xlink:href="#linearGradient4509"
   id="linearGradient5103"
   gradientUnits="userSpaceOnUse"
   gradientTransform="matrix(0.03543307,0,0,0.03543307,4.9321338e-6,0)"
   x1="8631.0977"
   y1="5591.9688"
   x2="11773.466"
   y2="5591.9688" /><linearGradient
   inkscape:collect="always"
   xlink:href="#linearGradient4523"
   id="linearGradient5105"
   gradientUnits="userSpaceOnUse"
   x1="10453.695"
   y1="8762.5605"
   x2="14397.751"
   y2="8762.5605" /><linearGradient
   inkscape:collect="always"
   xlink:href="#linearGradient4523"
   id="linearGradient5107"
   gradientUnits="userSpaceOnUse"
   gradientTransform="matrix(0.03543307,0,0,0.03543307,4.9321338e-6,0)"
   x1="10839.987"
   y1="6980.1509"
   x2="14010.577"
   y2="6980.1509" /><radialGradient
   inkscape:collect="always"
   xlink:href="#linearGradient4867"
   id="radialGradient5109"
   gradientUnits="userSpaceOnUse"
   gradientTransform="matrix(1,0,0,0.75388776,0,65.062077)"
   cx="440.23438"
   cy="265.85068"
   fx="440.23438"
   fy="265.85068"
   r="69.328125" /><radialGradient
   inkscape:collect="always"
   xlink:href="#linearGradient4843"
   id="radialGradient5111"
   gradientUnits="userSpaceOnUse"
   gradientTransform="matrix(1,0,0,0.75388776,0,65.062077)"
   cx="282.20438"
   cy="264.35938"
   fx="282.20438"
   fy="264.35938"
   r="69.328125" /></defs>
 
<g
   id="g5054"
   transform="translate(-777.78725,-951.78711)"><rect
     y="951.78723"
     x="777.78711"
     height="12504.426"
     width="19444.682"
     id="rect4980"
     style="fill:url(#linearGradient5077);fill-opacity:1;stroke:none" /><rect
     transform="scale(1,-1)"
     style="fill:url(#linearGradient5079);fill-opacity:1;stroke:none"
     id="rect5044"
     width="19444.682"
     height="12504.426"
     x="777.78711"
     y="-13456.213" /><g
     transform="translate(301.32204,-409.38498)"
     id="g4960"><path
       style="fill:#000000;fill-opacity:0.5;stroke:none;filter:url(#filter5018)"
       d="m 5749.3959,5162.021 c -1081.3531,0 -1957.9168,660.0424 -1957.9168,1474.6111 l 5.2917,1028.3473 c -2.9746,33.1707 -5.2917,66.8025 -5.2917,100.5416 0,38.0346 2.4187,75.5761 6.1736,112.8889 0.1129,1.1656 -0.1128,2.3651 0,3.5278 78.8668,760.1439 922.4578,1359.0764 1951.7432,1359.0764 93.4708,0 185.1899,-5.4443 275.1666,-14.993 0.9545,13.4899 2.1774,27.1509 3.5278,40.5694 0.1129,1.1656 -0.1129,2.3651 0,3.5278 78.8667,760.1437 922.4578,1359.0767 1951.7431,1359.0767 1049.1318,0 1906.0497,-622.198 1956.1528,-1403.1739 87.0488,8.9907 175.9798,14.993 266.3468,14.993 91.028,0 180.387,-5.0467 268.112,-14.1111 0.943,13.197 2.206,26.5588 3.527,39.6875 0.113,1.1656 -0.113,2.3651 0,3.5278 78.866,760.1437 922.458,1359.0767 1951.743,1359.0767 1048.346,0 1903.999,-621.257 1955.271,-1401.41 87.161,8.947 175.929,13.2291 266.348,13.2291 1081.353,0 1957.916,-660.9243 1957.916,-1475.4931 l 0,-1103.3125 c 0.194,-8.5488 0.882,-16.9929 0.882,-25.5764 0,-814.5687 -876.563,-1474.6111 -1957.916,-1474.6111 -1049.131,0 -1905.166,621.3514 -1955.271,1402.2917 -87.419,-8.986 -176.524,-14.1111 -267.23,-14.1111 -90.725,0 -179.783,5.1138 -267.229,14.1111 -50.105,-780.9256 -906.139,-1402.2917 -1955.271,-1402.2917 -1049.1294,0 -1905.1656,621.3514 -1955.2705,1402.2917 -22.0136,-2.264 -43.9056,-4.4653 -66.1458,-6.1736 -0.2929,-0.023 -0.589,0.023 -0.8819,0 -27.0897,-2.0715 -54.616,-4.0604 -82.0209,-5.2917 -5.8758,-0.2791 -11.7486,-0.6429 -17.6389,-0.8819 -33.3719,-1.2737 -66.7495,-1.7639 -100.5416,-1.7639 -70.3298,0 -139.7861,3.2526 -208.1389,8.8194 -22.7844,1.8556 -45.3461,3.7733 -67.9098,6.1736 C 7655.1466,5783.8573 6798.9191,5162.021 5749.3959,5162.021 z m 5711.4721,766.4097 c 195.787,196.9344 312.575,441.3541 313.091,706.4375 -0.252,0.067 -0.631,-0.067 -0.882,0 -0.516,-264.8796 -116.695,-509.5813 -312.209,-706.4375 z m 4467.049,22.9306 c 15.397,16.2802 30.668,32.5103 44.979,49.3889 -14.303,-16.8803 -29.588,-33.1075 -44.979,-49.3889 z m 167.569,224.8958 c 49.664,88.4803 85.096,182.5131 104.952,280.4584 11.913,58.7671 18.521,118.6329 18.521,179.9166 0,37.8957 -2.436,75.9026 -7.056,112.8889 -1.624,13.0023 -3.996,25.9292 -6.174,38.8056 2.189,-13.0249 4.55,-25.6549 6.174,-38.8056 4.578,-37.0735 6.174,-74.9455 6.174,-112.8889 0,-61.2837 -5.726,-121.158 -17.639,-179.9166 -19.856,-97.9312 -55.288,-192.0091 -104.952,-280.4584 z M 5749.3959,6290.9099 c 527.8518,0 1006.0965,158.5581 1358.1944,414.5139 -420.6147,158.0473 -754.5928,426.3209 -935.743,754.9445 -9.5821,17.3826 -19.5087,35.2049 -28.2223,52.9166 -45.0198,91.51 -77.7005,186.6821 -97.8958,285.75 -95.9621,13.8058 -195.0218,22.0486 -296.3333,22.0486 -766.983,0 -1405.3169,-414.5505 -1543.4029,-962.2014 358.3353,-345.4606 916.2788,-567.9722 1543.4029,-567.9722 z m 4452.9371,0 c 526.85,0 1004.521,157.6522 1356.431,412.75 -561.763,209.4114 -971.562,614.4246 -1068.917,1098.0209 -93.002,12.9432 -188.651,19.4027 -286.632,19.4027 -98.2,0 -194.299,-7.2765 -287.5135,-20.2847 -0.057,-0.283 0.057,-0.5989 0,-0.8819 -3.3818,-16.6726 -7.3488,-32.9052 -11.4653,-49.3889 -4.2265,-16.9238 -9.1239,-33.5568 -14.1111,-50.2708 -8.9597,-30.0282 -18.6357,-59.7727 -29.9861,-89.0764 -1.1481,-2.9642 -2.3557,-5.8632 -3.5278,-8.8195 -2.0709,-5.2239 -4.0278,-10.6756 -6.1736,-15.875 -11.1308,-26.9556 -23.0632,-53.9894 -36.1597,-80.2569 -7.7944,-15.6445 -16.221,-30.4752 -24.6944,-45.8611 -8.48,-15.3975 -17.3124,-30.7324 -26.4584,-45.8612 -9.122,-15.089 -18.4517,-30.1675 -28.2222,-44.9791 -9.79,-14.8379 -20.4402,-29.549 -30.868,-44.0972 -9.7867,-13.6489 -19.6503,-27.1837 -29.9862,-40.5695 -0.6496,-0.8413 -1.1122,-1.8056 -1.7639,-2.6458 -0.2514,-0.324 -0.6302,-0.558 -0.8819,-0.882 -10.8675,-13.9855 -22.0588,-27.7647 -33.5139,-41.4514 -11.1289,-13.3017 -21.8414,-26.6776 -33.5139,-39.6875 -0.5537,-0.6172 -1.209,-1.1472 -1.7639,-1.7638 -1.3758,-1.5283 -3.0265,-2.8855 -4.4097,-4.4098 -11.0304,-12.1575 -22.0178,-24.2674 -33.5139,-36.1597 -4.9047,-5.0752 -10.0048,-9.967 -14.993,-14.9931 -7.9508,-8.0069 -16.5343,-15.9325 -24.6945,-23.8125 -11.1723,-10.7862 -21.9555,-22.0892 -33.5139,-32.6319 -2.3001,-2.0992 -4.7402,-4.0843 -7.0555,-6.1736 -17.6417,-15.9111 -36.1781,-31.4116 -54.6806,-46.7431 -10.7628,-8.9182 -21.5855,-17.7416 -32.6319,-26.4583 -10.4504,-8.2451 -21.0504,-16.6333 -31.75,-24.6944 -8.9775,-6.761 -18.1907,-13.6556 -27.3403,-20.2848 -25.1268,-18.205 -51.2245,-35.7344 -77.6111,-52.9166 -6.9684,-4.5376 -14.1131,-8.765 -21.1667,-13.2292 -4.4594,-2.8214 -8.7359,-6.0274 -13.2292,-8.8194 -6.9974,-4.3488 -14.0882,-8.9527 -21.1666,-13.2292 -17.342,-10.473 -35.098,-20.8359 -52.9167,-30.8681 -6.0531,-3.4089 -12.4141,-6.344 -18.5208,-9.7014 -19.1372,-10.5178 -38.5536,-20.8666 -58.2084,-30.868 -9.8806,-5.027 -19.9782,-10.0993 -29.9861,-14.9931 -16.3387,-7.9894 -32.7186,-16.1834 -49.3889,-23.8125 -2.0243,-0.9262 -4.1444,-1.7249 -6.1736,-2.6458 -0.3536,-0.1606 -0.5283,-0.7216 -0.8819,-0.882 -18.2711,-8.2801 -36.9093,-15.9737 -55.5625,-23.8125 -6.4194,-2.6966 -12.9391,-5.2939 -19.4028,-7.9375 -12.7192,-5.203 -25.9179,-9.9974 -38.8056,-14.993 -9.0861,-3.5199 -18.172,-7.1679 -27.3402,-10.5833 351.7646,-254.6043 828.342,-411.8681 1354.6662,-411.8681 z m 4445.001,0 c 627.005,0 1185.058,222.6239 1543.402,567.9722 -137.802,547.665 -775.427,962.2014 -1542.52,962.2014 -98.284,0 -194.221,-7.2737 -287.514,-20.2847 -97.66,-483.3343 -506.671,-888.8532 -1068.035,-1098.0208 351.765,-254.6043 828.341,-411.8681 1354.667,-411.8681 z m -6015.7436,342.1944 c 5.3125,1.4109 10.5853,2.9589 15.875,4.4098 -5.2113,-1.4219 -10.6435,-2.1384 -15.875,-3.5278 8e-4,-0.2955 0,-0.5867 0,-0.882 z m 3720.9236,209.9028 c -65.303,2.2251 -129.181,7.7925 -192.264,15.875 62.962,-8.0416 127.026,-13.7148 192.264,-15.875 z m -3950.2292,43.2153 c 10.5498,2.192 21.2474,3.8267 31.75,6.1736 18.2101,4.1216 35.8741,8.6287 53.7986,13.2292 10.933,2.8061 21.809,4.9561 32.632,7.9375 6.1967,1.5965 12.3466,3.5235 18.5208,5.2917 0.8805,0.254 1.7681,0.6335 2.6458,0.8819 0.3517,0.1013 0.5306,0.7806 0.882,0.8819 -3.4448,-0.9979 -7.127,-1.6656 -10.5833,-2.6458 -14.2822,-4.0355 -28.739,-7.736 -43.2153,-11.4653 -7.0344,-1.8206 -14.0877,-3.5444 -21.1667,-5.2916 -10.8709,-2.6699 -21.6583,-5.4424 -32.6319,-7.9375 -10.8066,-2.4695 -21.7292,-4.758 -32.632,-7.0556 z m 172.8611,44.0972 c 5.4921,1.6925 11.2963,2.6721 16.757,4.4098 1.0013,0.3158 1.6467,1.4466 2.6458,1.7638 -6.4561,-2.074 -12.9021,-4.1627 -19.4028,-6.1736 z m 4154.8401,3.5278 c 12.942,47.6532 28.744,95.2489 47.625,141.1111 -9.535,-23.0973 -18.41,-46.1058 -26.458,-69.6736 -8.048,-23.5678 -14.715,-47.494 -21.167,-71.4375 z m -4134.5553,2.6458 c 16.5819,5.2742 33.084,10.1657 49.3888,15.875 5.5864,1.9643 11.2068,4.1614 16.757,6.1737 11.3163,4.1029 22.3506,8.9295 33.5139,13.2291 -12.5267,-4.8392 -25.2005,-9.5176 -37.9236,-14.1111 -3.735,-1.3439 -7.7143,-2.2056 -11.4653,-3.5278 -16.6624,-5.8928 -33.2907,-12.1756 -50.2708,-17.6389 z m 3114.1463,36.1598 c -47.027,18.144 -92.582,37.601 -136.702,59.0902 44.134,-21.5135 89.679,-40.9157 136.702,-59.0902 z m 1501.069,28.2222 c 21.14,9.2069 42.117,18.3055 62.618,28.2222 -20.557,-9.9288 -41.423,-19.0031 -62.618,-28.2222 z m 67.91,30.868 c 22.083,10.777 43.965,21.938 65.264,33.5139 -21.474,-11.6569 -42.998,-22.6649 -65.264,-33.5139 z m -500.063,44.0973 c 17.67,42.8088 37.397,84.1948 59.972,125.2361 -10.384,-18.9885 -20.571,-37.949 -29.986,-57.3264 -10.929,-22.4911 -20.497,-44.9374 -29.986,-67.9097 z m -3836.4582,14.1111 c 6.6712,3.8915 13.6999,7.495 20.2848,11.4653 0.3448,0.208 0.5373,0.6736 0.8819,0.8819 5.5172,3.3342 11.3013,6.3125 16.7569,9.7014 4.839,3.004 9.321,6.6548 14.1112,9.7014 9.6551,6.1411 19.6508,12.2092 29.1041,18.5208 7.3048,4.8771 13.9844,10.0158 21.1667,14.9931 -16.3816,-11.3626 -33.2562,-22.6783 -50.2708,-33.5139 -10.1761,-6.4807 -20.4724,-13.1155 -30.8681,-19.4028 -6.9864,-4.2251 -14.0829,-8.2107 -21.1667,-12.3472 z m 4528.7852,52.0347 c 18.565,12.479 36.924,25.6836 54.68,38.8056 18.422,13.6135 36.282,28.0537 53.799,42.3333 -17.451,-14.1884 -35.452,-28.803 -53.799,-42.3333 -17.827,-13.1471 -36.041,-26.304 -54.68,-38.8056 z m -2255.132,128.7639 c -16.224,14.7168 -31.468,29.6723 -46.743,44.9792 15.174,-15.1706 30.637,-30.3877 46.743,-44.9792 z m 289.277,28.2222 c -14.886,16.5789 -29.907,32.5408 -45.861,48.507 15.868,-15.8948 31.051,-32.0057 45.861,-48.507 z m -2203.0968,87.3125 c 7.171,8.3916 15.1545,16.1589 22.0486,24.6945 4.7447,5.8744 8.6174,12.5795 13.2292,18.5208 8.1418,10.5001 16.9745,21.0467 24.6944,31.75 1.4582,2.0201 2.9667,4.1464 4.4097,6.1736 0.3836,0.5396 0.4996,1.224 0.882,1.7639 -9.5843,-13.5311 -19.7316,-26.4772 -29.9861,-39.6875 -11.3098,-14.5694 -23.1747,-29.0525 -35.2778,-43.2153 z m 2102.5558,12.3472 c -15.1,13.49 -30.872,26.7223 -46.743,39.6875 16.062,-13.1222 31.471,-26.0279 46.743,-39.6875 z m 2087.562,39.6875 c 17.916,14.6042 36.7,29.3054 55.563,43.2153 18.863,13.9099 38.436,27.3815 58.208,40.5695 18.554,12.376 37.123,24.4432 56.445,36.1597 -19.318,-11.7402 -37.896,-23.7566 -56.445,-36.1597 -19.876,-13.2904 -39.252,-26.5461 -58.208,-40.5695 -18.962,-14.0275 -37.561,-28.4838 -55.563,-43.2153 z m -4122.2081,35.2778 c 8.984,12.8109 18.0879,24.839 26.4583,37.9236 1.1402,1.7778 2.3992,3.5089 3.5278,5.2917 0.2676,0.4236 -0.267,1.34 0,1.7639 0.6407,1.0174 2.0091,1.6267 2.6458,2.6458 2.1492,3.4392 4.0674,7.1261 6.1737,10.5834 4.4142,7.2305 8.1223,14.7399 12.3472,22.0486 -6.7861,-11.7546 -13.8927,-23.7262 -21.1667,-35.2778 -9.6542,-15.3317 -19.4928,-30.02 -29.9861,-44.9792 z m 1875.0141,48.507 c -15.952,10.6654 -31.986,21.573 -48.507,31.75 16.573,-10.2083 32.507,-21.0501 48.507,-31.75 z m -253.118,19.4027 c -17.688,29.6783 -34.055,59.9181 -48.507,90.8403 -8.937,19.122 -17.044,38.6475 -24.695,58.2084 7.665,-19.5606 15.74,-39.0864 24.695,-58.2084 14.489,-30.9394 30.77,-61.146 48.507,-90.8403 z m -1538.9933,71.4376 c 2.6842,5.4356 6.2388,10.4015 8.8194,15.875 0.6717,1.4246 1.0993,2.9825 1.7639,4.4097 6.1448,13.1975 12.104,26.2799 17.6389,39.6875 1.3115,3.1761 2.251,6.5137 3.5278,9.7014 1.0326,2.5783 1.636,5.3517 2.6458,7.9375 -0.3669,-0.142 -0.5153,-0.7397 -0.8819,-0.882 -10.162,-25.9478 -21.0961,-51.5611 -33.5139,-76.7291 z m 1591.0273,22.9305 c -18.223,8.7266 -36.841,17.4063 -55.562,25.5764 18.822,-8.2144 37.245,-16.7996 55.562,-25.5764 z m 2818.695,25.5764 c 22.774,9.9159 46.199,20.0307 69.674,29.1042 -23.685,-9.155 -46.706,-19.0842 -69.674,-29.1042 z m -5882.5696,17.6389 c 90.912,0 180.4969,5.0552 268.1111,14.1111 -1.7805,24.0307 -3.5277,48.0458 -3.5277,72.3194 0,38.0346 2.4186,75.5761 6.1736,112.8889 0.1129,1.1656 -0.1129,2.3651 0,3.5278 43.9942,424.0324 326.7128,798.2653 746.125,1045.9862 -5.5646,3.5633 -11.1261,7.0775 -16.757,10.5833 -0.3499,0.2179 -0.5317,0.6643 -0.8819,0.8819 -19.0652,11.8494 -38.4048,23.2227 -58.2083,34.3959 -0.3537,0.1995 -0.5281,0.6827 -0.882,0.8819 -19.8264,11.167 -40.3205,21.2844 -60.8542,31.75 -0.3561,0.1815 -0.5257,0.7008 -0.8819,0.882 -20.5534,10.4574 -41.3884,20.2542 -62.6181,29.9861 -0.3598,0.1651 -0.5218,0.7171 -0.8819,0.8819 -12.0455,5.5121 -24.7867,10.6023 -37.0417,15.875 -17.8855,7.6945 -36.364,14.8754 -54.6805,22.0486 -13.7668,5.3913 -27.4498,10.7849 -41.4514,15.875 -0.3582,0.1304 -0.5235,0.7519 -0.882,0.882 -63.6436,23.0931 -129.4985,43.4258 -197.5555,59.9722 -151.9902,36.9612 -314.104,56.4444 -482.4236,56.4444 -27.1185,0 -54.3572,-0.7397 -81.1389,-1.7638 -26.7818,-1.0242 -52.963,-2.3862 -79.375,-4.4098 -327.0744,-25.0579 -624.2045,-125.9354 -860.7778,-278.6944 454.9445,-270.2532 747.8889,-688.7425 747.8889,-1158.8751 l 0,-71.4375 c 89.3273,-9.4177 179.7431,-14.993 272.5208,-14.993 z m 4445.8816,0 c 90.61,0 179.895,5.1141 267.23,14.1111 -1.781,24.0307 -3.528,48.0458 -3.528,72.3194 0,38.0346 2.419,75.5761 6.173,112.8889 0.113,1.1656 -0.112,2.3651 0,3.5278 43.981,423.8975 326.934,797.3822 746.126,1045.1042 -273.941,175.5961 -628.203,282.2222 -1016.001,282.2222 -388.015,0 -742.685,-106.4531 -1016.881,-282.2222 457.106,-270.1626 751.416,-690.0175 751.416,-1161.5209 l 0,-72.3194 c 86.785,-8.8756 175.444,-14.1111 265.465,-14.1111 z m -1524.882,60.8542 c -7.85,23.7704 -15.229,48.0215 -21.166,72.3194 5.925,-24.5689 13.255,-48.3091 21.166,-72.3194 z m -6322.6594,79.375 c 50.2559,28.33 102.2804,54.7223 156.1042,79.375 -53.8238,-24.6538 -105.8483,-51.0436 -156.1042,-79.375 z m 6795.3824,0 c -37.59,21.1726 -76.013,41.6608 -115.535,60.8541 39.402,-19.0325 78.127,-39.8043 115.535,-60.8541 z m -502.709,34.3958 c -5.169,26.4216 -8.68,53.2881 -11.465,80.2569 2.729,-27.04 6.358,-53.7619 11.465,-80.2569 z m -5883.4512,141.993 c 58.5609,18.6724 118.6079,35.895 179.9167,50.2709 -61.3088,-14.3767 -121.4351,-31.5446 -179.9167,-50.2709 z m 4563.1807,31.7501 c 0.2769,0.074 0.6051,-0.074 0.882,0 0,0.5912 0,1.1729 0,1.7638 -0.2732,-0.073 -0.6088,0.073 -0.882,0 0,-0.5915 6e-4,-1.1777 0,-1.7638 z m -4099.2779,67.9097 c 64.8157,7.4664 130.812,12.4423 197.5556,14.993 -66.7436,-2.5513 -132.7399,-7.526 -197.5556,-14.993 z m 8914.6944,1.7639 c 4.986,0.543 9.996,1.2494 14.993,1.7639 -4.956,-0.5069 -10.049,-1.2283 -14.993,-1.7639 z m -3898.194,0.8819 0,0.882 c -40.76,4.1557 -81.953,7.4653 -123.472,9.7013 41.548,-2.3401 82.632,-6.4154 123.472,-10.5833 z m -446.264,7.9375 c 29.894,2.0715 59.69,3.3624 89.958,4.4097 -3.219,-0.1086 -6.482,0.1231 -9.701,0 -26.821,-1.0247 -53.797,-2.5817 -80.257,-4.4097 z m -3993.4447,23.8125 c 1.43,15.3021 2.3647,30.6908 4.4097,45.8611 6.6842,49.5865 16.9458,98.3883 29.9861,146.4028 19.5606,72.0217 46.4358,142.1144 79.375,209.9028 9.3698,19.2828 18.7094,38.4296 29.1042,57.3264 -10.3835,-18.9885 -20.5703,-37.949 -29.9861,-57.3264 -11.1001,-22.8442 -21.2457,-45.4353 -30.8681,-68.7917 -9.5343,-23.0973 -18.4107,-46.1058 -26.4583,-69.6736 -8.0476,-23.5678 -14.7151,-47.494 -21.1667,-71.4375 -6.4516,-23.9434 -12.6873,-47.9038 -17.6389,-72.3194 -4.9515,-24.4157 -8.9368,-49.21 -12.3472,-74.0834 -1.7667,-12.886 -3.0928,-25.8357 -4.4097,-38.8055 -0.2029,-2.3433 0.1894,-4.7095 0,-7.0556 z m 409.2222,116.4167 c 2.8296,11.2324 5.5717,22.3963 8.8195,33.5139 -3.2388,-11.117 -5.9987,-22.2826 -8.8195,-33.5139 z m 3048.8821,114.6528 c -2.0557,5.2383 -3.1429,10.6671 -5.2917,15.875 -2.1864,5.2984 -4.7735,10.6084 -7.0556,15.875 4.5396,-10.4798 8.1882,-21.1441 12.3473,-31.75 z m -2988.9098,55.5625 c 5.9941,12.8625 11.9591,26.1501 18.5208,38.8055 -3.9218,-7.5776 -7.7459,-15.2781 -11.4653,-22.9305 -2.5188,-5.1822 -4.6307,-10.6593 -7.0555,-15.875 z m 2965.0973,1.7639 c -2.1571,4.6208 -3.943,9.5168 -6.1736,14.1111 -0.1685,0.3468 -0.7132,0.5353 -0.882,0.8819 -0.1168,0.2399 0.1171,0.6421 0,0.882 -0.861,1.7647 -1.774,3.5308 -2.6458,5.2916 -3.5905,7.248 -7.6931,13.9864 -11.4653,21.1667 4.7585,-9.0593 9.6427,-18.1732 14.1111,-27.3403 2.406,-4.9361 4.7346,-10.0262 7.0556,-14.993 z m -100.5417,171.0972 c -0.383,0.5317 -0.4978,1.2324 -0.8819,1.7639 -6.9704,9.6432 -14.7363,18.7435 -22.0487,28.2222 7.714,-9.991 15.5971,-19.8126 22.9306,-29.9861 z m -3175.882,25.5764 c 22.3421,38.5177 46.7315,76.1684 73.2014,112.8889 9.8173,13.6194 19.6217,27.213 29.9861,40.5694 -10.4425,-13.4837 -20.9818,-26.8179 -30.8681,-40.5694 -0.6237,-0.8665 -1.1402,-1.7823 -1.7639,-2.6459 -10.4645,-14.6253 -21.0436,-30.0629 -30.868,-44.9791 -3.5287,-5.3577 -7.1383,-10.4809 -10.5834,-15.875 -5.0639,-7.9198 -10.1123,-15.8149 -14.993,-23.8125 -1.0301,-1.6877 -1.627,-3.6015 -2.6459,-5.2917 -4.0366,-6.6878 -7.5711,-13.5738 -11.4652,-20.2847 z m 451.5555,24.6944 c 25.8637,31.9589 54.1384,63.6104 83.7848,93.4861 -29.8764,-30.1077 -57.7475,-61.2645 -83.7848,-93.4861 z m 2662.5904,27.3403 c -5.7003,6.6472 -10.8859,13.7298 -16.757,20.2847 -2.7418,3.059 -6.0406,5.7811 -8.8194,8.8195 8.7252,-9.5423 17.2167,-19.3627 25.5764,-29.1042 z m -2511.7779,128.7639 c 16.6105,14.566 33.6356,28.3949 51.1528,42.3333 -17.454,-13.9051 -34.5999,-27.8045 -51.1528,-42.3333 z m 2373.3126,8.8194 c -5.5028,4.7349 -10.2746,10.3251 -15.875,14.9931 -0.8097,0.6753 -1.8339,1.0899 -2.6458,1.7639 -0.3204,0.2658 -0.5614,0.6163 -0.882,0.8819 -4.8387,4.0087 -10.0826,7.5071 -14.993,11.4653 11.8389,-9.5346 22.9757,-19.2786 34.3958,-29.1042 z m -2818.6945,29.1042 c 4.6504,5.3354 9.3717,10.5878 14.1111,15.875 17.5923,19.6249 35.8888,39.2704 54.6805,58.2083 -4.9053,-4.7989 -10.2573,-9.2151 -14.993,-14.1111 -0.1411,-0.1693 0.1411,-0.7267 0,-0.8819 -13.7818,-14.2599 -27.4636,-28.575 -40.5695,-43.2153 -4.6117,-5.1446 -8.6893,-10.6655 -13.2291,-15.875 z m 7356.2985,311.3264 c -9.247,5.9969 -17.908,12.6534 -27.34,18.5208 -10.301,6.4132 -21.241,12.2084 -31.75,18.5209 -14.141,8.494 -27.925,17.4469 -42.333,25.5764 -0.226,0.1128 -0.659,-0.1129 -0.882,0 -9.822,5.5321 -20.042,10.4662 -29.986,15.875 -40.726,22.1519 -82.168,43.7726 -125.236,63.5 -6.879,3.1532 -14.222,5.744 -21.167,8.8194 50.192,-22.3788 99.221,-46.7572 146.403,-72.3194 24.713,-13.3895 49.368,-27.2294 73.201,-41.4514 20.273,-12.0975 39.48,-24.3609 59.09,-37.0417 z m -3761.4929,8.8194 c 0,23.0906 -0.4196,45.9659 -1.7639,68.7917 1.3934,-22.8301 1.7639,-45.7031 1.7639,-68.7917 z m -3128.257,53.7987 c 50.0304,28.203 101.655,54.8157 155.2222,79.375 -53.5841,-24.5441 -105.1743,-51.187 -155.2222,-79.375 z m 4444.9999,0 c 50.256,28.33 102.281,54.7223 156.104,79.375 -53.824,-24.6539 -105.848,-51.0436 -156.104,-79.375 z m -2134.3054,16.7569 c -20.6194,11.2008 -41.4277,22.0173 -62.618,32.6319 21.2846,-10.5898 41.9252,-21.4407 62.618,-32.6319 z m -1901.4723,159.6319 c 58.2947,18.5875 118.0161,35.9405 179.0348,50.2709 -61.3089,-14.3767 -120.5532,-31.5446 -179.0348,-50.2709 z m 4444.9997,0 c 58.561,18.6724 118.608,35.895 179.917,50.2709 -61.309,-14.3767 -121.435,-31.5446 -179.917,-50.2709 z m 1494.896,8.8195 c -49.096,15.1045 -98.843,29.4716 -149.93,41.4514 -0.282,0.057 -0.605,-0.056 -0.882,0 -5.524,1.2934 -11.21,2.2705 -16.757,3.5275 56.992,-12.9385 112.898,-28.3275 167.569,-44.9789 z m -4459.9928,5.2917 c -44.2364,13.2847 -89.9776,25.4101 -135.8195,36.1597 24.3682,-5.7139 48.3698,-12.1164 72.3195,-18.5209 6.2611,-1.673 12.289,-3.572 18.5208,-5.2916 15.0904,-4.1642 30.0654,-7.913 44.9792,-12.3472 z m -1016.0001,85.5482 c 64.5301,7.434 130.232,12.432 196.6736,14.993 -66.4483,-2.54 -132.1341,-7.581 -196.6736,-14.993 z m 4444.9999,0 c 64.816,7.467 130.812,12.443 197.556,14.993 -66.743,-2.551 -132.741,-7.526 -197.556,-14.993 z m 586.493,0.882 c -31.139,3.457 -62.748,6.481 -94.368,8.82 31.64,-2.349 63.189,-5.349 94.368,-8.82 z m -4469.6942,1.764 c 2.9122,-0.296 5.9111,0.306 8.8194,0 -26.1581,2.747 -52.0026,5.095 -78.4931,7.056 2.0803,-0.155 4.0954,-0.723 6.1737,-0.882 21.3608,-1.636 42.3477,-4.025 63.5,-6.174 z"
       id="path4911"
       inkscape:connector-curvature="0" /><g
       id="g4891"><path
         inkscape:connector-curvature="0"
         transform="matrix(28.222223,0,0,28.222223,-1.3919578e-4,0)"
         id="path4459"
         d="m 282.78125,212.09375 c -3.32266,0 -6.58325,0.19106 -9.78125,0.53125 0.0545,0.84992 0.0937,1.70244 0.0937,2.5625 0,2.72423 -0.27912,5.38824 -0.8125,8 3.40349,-0.48936 6.90739,-0.75 10.5,-0.75 30.7484,0 55.65625,18.74389 55.65625,41.90625 0,23.16236 -24.90785,41.96875 -55.65625,41.96875 -30.7484,0 -55.6875,-18.80639 -55.6875,-41.96875 0,-16.18238 12.17749,-30.19823 30,-37.1875 1.50263,-3.79822 2.3125,-7.80219 2.3125,-11.96875 0,-0.0105 10e-6,-0.0208 0,-0.0312 -26.80784,7.22956 -46,26.50704 -46,49.1875 0,28.86267 31.05934,52.28125 69.375,52.28125 38.31566,0 69.375,-23.41858 69.375,-52.28125 0,-28.86267 -31.05934,-52.25 -69.375,-52.25 z"
         style="fill:url(#linearGradient5081);fill-opacity:1;stroke:none" /><path
         inkscape:connector-curvature="0"
         transform="matrix(28.222223,0,0,28.222223,-1.3919578e-4,0)"
         id="path4463"
         d="m 282.75,222.4375 c -3.29733,0 -6.51612,0.21158 -9.65625,0.625 l 0,29.5625 c 3.16514,-0.3337 6.36885,-0.53125 9.65625,-0.53125 3.22129,0 6.39556,0.17912 9.5,0.5 0.0246,-0.33204 0.0329,-0.67026 0.0625,-1 l -0.15625,-28.5625 c -3.06109,-0.39229 -6.19615,-0.59375 -9.40625,-0.59375 z m 10.1875,0.71875 c 0.35005,1.71981 0.80799,3.402 1.375,5.0625 0.28515,0.83508 0.59967,1.65034 0.9375,2.46875 0.34095,0.82759 0.70044,1.62806 1.09375,2.4375 0.33363,0.6866 0.69458,1.35843 1.0625,2.03125 0.30149,0.54803 0.61249,1.08653 0.9375,1.625 0.0361,0.0599 0.0573,0.1277 0.0937,0.1875 0.17294,0.28338 0.35182,0.56313 0.53125,0.84375 0.12207,0.19113 0.24997,0.37266 0.375,0.5625 0.34811,0.52853 0.72296,1.07553 1.09375,1.59375 0.0221,0.0306 0.0404,0.0631 0.0625,0.0937 0.3503,0.48726 0.72374,0.95973 1.09375,1.4375 0.0642,0.0823 0.1232,0.168 0.1875,0.25 0.13864,0.17677 0.26494,0.35583 0.40625,0.53125 0.42199,0.52385 0.86697,1.01969 1.3125,1.53125 0.16086,0.18459 0.30534,0.38021 0.46875,0.5625 0.46438,0.51875 0.94917,1.02598 1.4375,1.53125 0.005,0.006 -0.005,0.0252 0,0.0312 0.45244,0.46777 0.9337,0.91918 1.40625,1.375 1.06923,1.03197 2.1717,2.02802 3.34375,3 0.7465,0.61904 1.49661,1.2211 2.28125,1.8125 0.007,0.005 0.0242,-0.005 0.0312,0 0.77821,0.58608 1.56073,1.16092 2.375,1.71875 1.65366,1.13451 3.36247,2.20752 5.15625,3.21875 1.78072,1.00387 3.62411,1.93894 5.53125,2.8125 1.90714,0.87356 3.8843,1.67176 5.90625,2.40625 2.25632,0.81962 4.58736,1.58192 6.96875,2.21875 2.5e-4,-0.0524 0,-0.10378 0,-0.15625 0,-20.53795 -19.59491,-37.58429 -45.46875,-41.1875 z m -20.625,0.0312 c -25.75648,3.67743 -45.25,20.684 -45.25,41.15625 0,0.67193 0.0506,1.33514 0.0937,2 -0.04,-0.64168 -0.0612,-1.28858 -0.0625,-1.9375 2.28284,-0.62121 4.51893,-1.33814 6.6875,-2.125 2.03101,-0.73774 4.02235,-1.52821 5.9375,-2.40625 1.89866,-0.86968 3.72662,-1.81366 5.5,-2.8125 0.008,-0.004 0.0233,0.004 0.0312,0 0.88994,-0.50211 1.76885,-1.02948 2.625,-1.5625 1.71315,-1.06572 3.33696,-2.19214 4.90625,-3.375 0.77807,-0.58648 1.54068,-1.19884 2.28125,-1.8125 1.493,-1.23809 2.91829,-2.53295 4.25,-3.875 0.63467,-0.63962 1.24889,-1.27624 1.84375,-1.9375 0.66164,-0.73483 1.29376,-1.48892 1.90625,-2.25 0.75935,-0.94276 1.47162,-1.92357 2.15625,-2.90625 0.0983,-0.14184 0.21583,-0.26365 0.3125,-0.40625 0.12081,-0.17722 0.22556,-0.35288 0.34375,-0.53125 0.25011,-0.37949 0.51183,-0.7717 0.75,-1.15625 0.17705,-0.28498 0.32992,-0.58745 0.5,-0.875 0.17463,-0.29573 0.36372,-0.57649 0.53125,-0.875 0.064,-0.11405 0.12456,-0.22929 0.1875,-0.34375 1.66286,-3.02406 2.95334,-6.1902 3.84375,-9.46875 0.22571,-0.83108 0.44958,-1.65563 0.625,-2.5 z m -44.34375,48.53125 c 0.0392,0.16461 0.0521,0.33606 0.0937,0.5 0.0105,-0.0101 0.0207,-0.0211 0.0312,-0.0312 -0.0396,-0.15726 -0.0877,-0.31088 -0.125,-0.46875 z M 348.1875,281.75 c -0.28991,0.62022 -0.58616,1.23445 -0.90625,1.84375 0.31927,-0.60608 0.61657,-1.22677 0.90625,-1.84375 z"
         style="fill:url(#linearGradient5083);stroke:none" /><path
         inkscape:connector-curvature="0"
         transform="matrix(28.222223,0,0,28.222223,-1.3919578e-4,0)"
         id="path4677"
         d="m 361.53125,162.90625 c -37.1739,0 -67.50588,22.01639 -69.28125,49.6875 4.69239,0.48679 9.24975,1.34307 13.59375,2.5 0.0451,-23.13343 24.96695,-41.84375 55.6875,-41.84375 30.74839,0 55.65625,18.74389 55.65625,41.90625 0,16.28037 -12.32266,30.38537 -30.3125,37.34375 -1.46915,3.75923 -2.28125,7.72566 -2.28125,11.84375 0,0.0419 -1.6e-4,0.0831 0,0.125 26.97181,-7.1689 46.3125,-26.54366 46.3125,-49.3125 0,-28.86267 -31.05934,-52.25 -69.375,-52.25 z m -68.5625,60.25 c 5.10493,25.07411 33.85281,44.28125 68.5625,44.28125 3.21469,0 6.37027,-0.18092 9.46875,-0.5 -0.0559,-0.86014 -0.0937,-1.72322 -0.0937,-2.59375 0,-2.69469 0.29041,-5.32144 0.8125,-7.90625 -3.30495,0.46148 -6.70501,0.6875 -10.1875,0.6875 -25.25832,0 -46.59165,-12.69676 -53.40625,-30.0625 -4.69993,-1.81905 -9.7969,-3.15436 -15.15625,-3.90625 z"
         style="fill:url(#radialGradient5085);fill-opacity:1;stroke:none" /><path
         inkscape:connector-curvature="0"
         id="path4483"
         d="m 14648.138,4597.6571 c -1081.353,0 -1957.917,660.3039 -1957.917,1474.8726 0,814.5688 876.564,1475.5371 1957.917,1475.5371 1081.353,0 1957.917,-660.9683 1957.917,-1475.5371 0,-814.5687 -876.564,-1474.8726 -1957.917,-1474.8726 z m 0,291.6528 c 867.788,0 1570.743,529.5266 1570.743,1183.2198 0,653.6933 -702.955,1183.8841 -1570.743,1183.8841 -867.788,0 -1571.625,-530.1908 -1571.625,-1183.8841 0,-653.6932 703.837,-1183.2198 1571.625,-1183.2198 z"
         style="fill:url(#radialGradient5087);fill-opacity:1;stroke:none" /><path
         inkscape:connector-curvature="0"
         style="fill:url(#linearGradient5089);stroke:none"
         d="m 12689.806,6072.1877 5.292,1028.3472 c -2.975,33.1707 -5.292,66.8026 -5.292,100.5417 0,38.0345 2.419,75.576 6.174,112.8889 0.113,1.1656 -0.113,2.365 0,3.5278 78.866,760.1438 922.457,1359.0759 1951.743,1359.0759 1081.353,0 1957.917,-660.9239 1957.917,-1475.4926 l 0,-1128.8889 c 0,50.9106 -3.018,101.2257 -9.702,150.8125 -6.684,49.5867 -16.946,98.3877 -29.986,146.4028 -25.129,92.5279 -61.55,181.8834 -108.479,267.2291 -1.775,3.2303 -3.485,6.4827 -5.292,9.7014 -4.728,8.4246 -10.064,16.3483 -14.993,24.6945 -4.8,8.1153 -9.114,16.6516 -14.111,24.6944 -6.722,10.8529 -14.108,21.9219 -21.167,32.632 -3.335,5.034 -6.292,9.9915 -9.701,14.993 -2.729,4.0245 -6.044,7.4622 -8.819,11.4653 -19.322,27.7334 -39.424,55.414 -60.855,82.0208 -17.285,21.4794 -35.125,42.7615 -53.798,63.5 -16.789,18.6623 -34.123,36.6291 -52.035,54.6806 -37.584,37.8756 -77.809,74.4194 -119.944,109.3611 -20.901,17.3188 -42.424,34.601 -64.382,51.1528 -44.289,33.3829 -90.117,65.173 -138.466,95.25 -24.162,15.043 -48.967,29.9265 -74.083,44.0972 -0.226,0.1129 -0.658,-0.1129 -0.881,0 -50.048,28.1895 -101.637,54.8307 -155.222,79.375 -54.05,24.7802 -110.25,47.0891 -167.569,67.9097 -85.357,30.9714 -173.782,57.8756 -265.466,79.375 -0.282,0.057 -0.603,-0.056 -0.88,0 -61.044,14.292 -123.531,26.372 -186.972,36.1598 -32.146,4.9704 -64.315,9.4623 -97.014,13.2291 -64.538,7.4129 -130.225,12.4534 -196.674,14.9931 -0.293,0.011 -0.587,-0.011 -0.88,0 -33.086,1.253 -67.043,1.7639 -100.542,1.7639 -33.792,0 -67.17,-0.4883 -100.542,-1.7639 -66.743,-2.5513 -132.74,-7.526 -197.555,-14.9931 -32.408,-3.7335 -64.268,-8.3131 -96.132,-13.2291 -63.729,-9.8321 -126.546,-21.7831 -187.854,-36.1598 -91.964,-21.5649 -180.752,-48.2817 -266.348,-79.375 -57.064,-20.7289 -112.863,-43.2559 -166.687,-67.9097 -53.824,-24.6538 -105.848,-51.0436 -156.104,-79.375 -50.625,-28.5392 -98.851,-58.8219 -145.521,-90.8403 -22.981,-15.7432 -45.065,-31.9664 -67.028,-48.5069 -0.197,-0.1411 -0.697,0.1411 -0.88,0 -22.145,-16.6906 -43.314,-33.6821 -64.382,-51.1528 -33.078,-27.4314 -64.192,-55.5422 -94.368,-84.6667 -13.337,-12.8642 -26.919,-25.604 -39.688,-38.8055 -0.141,-0.1694 0.141,-0.7253 0,-0.8806 -13.782,-14.2598 -27.464,-28.575 -40.569,-43.2152 -4.612,-5.1447 -8.69,-10.6655 -13.23,-15.875 -12.573,-14.4374 -25.132,-28.4311 -37.041,-43.2153 -3.988,-4.9508 -7.553,-10.0042 -11.465,-14.9931 -1.815,-2.3142 -3.479,-4.7334 -5.292,-7.0555 -10.443,-13.4838 -20.982,-26.8179 -30.868,-40.5695 -0.624,-0.8664 -1.14,-1.7808 -1.764,-2.6444 -10.465,-14.6253 -21.044,-30.0629 -30.868,-44.9792 -3.529,-5.3577 -7.138,-10.4809 -10.583,-15.875 -5.064,-7.9197 -10.113,-15.8149 -14.994,-23.8125 -1.03,-1.6877 -1.625,-3.6014 -2.644,-5.2916 -9.172,-15.1969 -17.95,-30.3945 -26.458,-45.8612 -10.384,-18.9884 -20.571,-37.949 -29.986,-57.3263 -11.101,-22.8442 -21.246,-45.4353 -30.868,-68.7917 -9.535,-23.0974 -18.411,-46.1058 -26.459,-69.6736 -16.095,-47.1357 -28.902,-94.9255 -38.805,-143.757 -9.904,-48.8315 -16.902,-98.7693 -20.285,-149.0486 -1.691,-25.1398 -2.645,-50.3919 -2.645,-75.8472 z"
         id="path4485" /><path
         inkscape:connector-curvature="0"
         style="fill:url(#linearGradient5091);stroke:none"
         d="m 14647.723,4889.5001 c -867.788,0 -1571.625,528.9943 -1571.625,1182.6876 0,75.8531 9.928,150.2159 28.222,222.25 358.335,-345.4606 916.279,-567.9723 1543.403,-567.9723 627.005,0 1185.059,222.624 1543.403,567.9723 18.056,-72.024 27.34,-146.363 27.34,-222.25 0,-653.6933 -702.955,-1182.6876 -1570.743,-1182.6876 z"
         id="path4487" /><path
         inkscape:connector-curvature="0"
         style="fill:url(#linearGradient5093);stroke:none"
         d="m 6022.3055,7460.3695 5.2916,1028.3472 c -2.9746,33.1707 -5.2916,66.8026 -5.2916,100.5417 0,38.0345 2.4186,75.576 6.1736,112.8889 0.1129,1.1656 -0.1129,2.365 0,3.5278 78.8667,760.1438 922.4577,1359.0759 1951.7431,1359.0759 1081.3531,0 1957.9167,-660.9239 1957.9167,-1475.4926 l 0,-1128.8889 c 0,50.9106 -3.0172,101.2257 -9.7014,150.8125 -6.6841,49.5867 -16.9457,98.3877 -29.9861,146.4028 -25.1293,92.5279 -61.5496,181.8834 -108.4792,267.2291 -1.7751,3.2303 -3.4851,6.4827 -5.2916,9.7014 -4.7281,8.4246 -10.0646,16.3483 -14.9931,24.6945 -4.8,8.1153 -9.1143,16.6516 -14.1111,24.6944 -6.7217,10.8529 -14.108,21.9219 -21.1667,32.632 -3.3355,5.034 -6.2918,9.9915 -9.7013,14.993 -2.7291,4.0245 -6.0438,7.4622 -8.8195,11.4653 -19.3218,27.7334 -39.4236,55.414 -60.8542,82.0208 -17.2858,21.4794 -35.1256,42.7615 -53.7986,63.5 -16.7882,18.6623 -34.1229,36.6291 -52.0347,54.6806 -37.5838,37.8756 -77.8087,74.4194 -119.9444,109.3611 -20.9006,17.3188 -42.4231,34.601 -64.382,51.1528 -44.2888,33.3829 -90.1164,65.173 -138.4653,95.25 -24.1624,15.043 -48.9672,29.9265 -74.0833,44.0972 -0.2258,0.1129 -0.6576,-0.1129 -0.8805,0 -50.0488,28.1895 -101.6379,54.8307 -155.2223,79.375 -54.0498,24.7802 -110.2498,47.0891 -167.5694,67.9097 -85.3567,30.9714 -173.7815,57.8756 -265.4653,79.375 -0.2822,0.057 -0.604,-0.056 -0.8805,0 -61.0441,14.292 -123.5307,26.372 -186.9723,36.1598 -32.1454,4.9704 -64.315,9.4623 -97.0139,13.2291 -64.5383,7.4129 -130.2252,12.4534 -196.6736,14.9931 -0.2935,0.011 -0.587,-0.011 -0.8805,0 -33.0855,1.253 -67.043,1.7639 -100.5417,1.7639 -33.7921,0 -67.1697,-0.4883 -100.5416,-1.7639 -66.7436,-2.5513 -132.7399,-7.526 -197.5556,-14.9931 -32.4079,-3.7335 -64.2677,-8.3131 -96.132,-13.2291 -63.7286,-9.8321 -126.5453,-21.7831 -187.8541,-36.1598 -91.9633,-21.5649 -180.7515,-48.2817 -266.3473,-79.375 -57.0639,-20.7289 -112.8637,-43.2559 -166.6875,-67.9097 -53.8237,-24.6538 -105.8483,-51.0436 -156.1041,-79.375 -50.6245,-28.5392 -98.8509,-58.8219 -145.5209,-90.8403 -22.9805,-15.7432 -45.0649,-31.9664 -67.0277,-48.5069 -0.1976,-0.1411 -0.6971,0.1411 -0.8806,0 -22.1443,-16.6906 -43.314,-33.6821 -64.3819,-51.1528 -33.0779,-27.4314 -64.192,-55.5422 -94.3681,-84.6667 -13.3364,-12.8642 -26.9186,-25.604 -39.6875,-38.8055 -0.1411,-0.1694 0.1411,-0.7253 0,-0.8806 -13.7817,-14.2598 -27.4636,-28.575 -40.5694,-43.2152 -4.6118,-5.1447 -8.6894,-10.6655 -13.2292,-15.875 -12.5738,-14.4374 -25.1322,-28.4311 -37.0417,-43.2153 -3.988,-4.9508 -7.5525,-10.0042 -11.4652,-14.9931 -1.8147,-2.3142 -3.479,-4.7334 -5.2917,-7.0555 -10.4425,-13.4838 -20.9818,-26.8179 -30.8681,-40.5695 -0.6237,-0.8664 -1.1401,-1.7808 -1.7639,-2.6444 -10.4645,-14.6253 -21.0436,-30.0629 -30.868,-44.9792 -3.5286,-5.3577 -7.1383,-10.4809 -10.5833,-15.875 -5.064,-7.9197 -10.1124,-15.8149 -14.9931,-23.8125 -1.0301,-1.6877 -1.6256,-3.6014 -2.6444,-5.2916 -9.1725,-15.1969 -17.9496,-30.3945 -26.4584,-45.8612 -10.3835,-18.9884 -20.5703,-37.949 -29.9861,-57.3263 -11.1001,-22.8442 -21.2457,-45.4353 -30.868,-68.7917 -9.5343,-23.0974 -18.4108,-46.1058 -26.4584,-69.6736 -16.0954,-47.1357 -28.9023,-94.9255 -38.8055,-143.757 -9.9032,-48.8315 -16.9017,-98.7693 -20.2847,-149.0486 -1.6906,-25.1398 -2.6445,-50.3919 -2.6445,-75.8472 z"
         id="path4461" /><path
         inkscape:connector-curvature="0"
         transform="matrix(28.222223,0,0,28.222223,-1.3919578e-4,0)"
         id="path4396"
         d="m 203.71875,162.90625 c -38.31566,0 -69.375,23.38733 -69.375,52.25 0,28.86267 31.05934,52.28125 69.375,52.28125 3.31367,0 6.59152,-0.16129 9.78125,-0.5 -0.0559,-0.86014 -0.0937,-1.72322 -0.0937,-2.59375 0,-2.72423 0.27912,-5.38824 0.8125,-8 -3.40023,0.48918 -6.91022,0.78125 -10.5,0.78125 -30.7484,0 -55.6875,-18.80639 -55.6875,-41.96875 0,-23.16236 24.9391,-41.90625 55.6875,-41.90625 30.7484,0 55.65625,18.74389 55.65625,41.90625 0,16.18564 -12.14957,30.22398 -29.96875,37.21875 -0.004,0.009 0.004,0.022 0,0.0312 -1.49563,3.79011 -2.3125,7.78104 -2.3125,11.9375 0,0.021 -4e-5,0.0415 0,0.0625 26.82366,-7.22941 46,-26.56101 46,-49.25 0,-28.86267 -31.05934,-52.25 -69.375,-52.25 z"
         style="fill:url(#radialGradient5095);fill-opacity:1;stroke:none" /><path
         inkscape:connector-curvature="0"
         transform="matrix(28.222223,0,0,28.222223,-1.3919578e-4,0)"
         id="path4432"
         d="m 134.34375,215.15625 0.1875,36.4375 c -0.1054,1.17534 -0.1875,2.36702 -0.1875,3.5625 0,1.34768 0.0857,2.67789 0.21875,4 0.004,0.0413 -0.004,0.0838 0,0.125 2.79449,26.93423 32.68551,48.15625 69.15625,48.15625 3.31196,0 6.56185,-0.19291 9.75,-0.53125 -0.0602,-0.85116 -0.0937,-1.69948 -0.0937,-2.5625 0,-1.19548 0.0821,-2.38716 0.1875,-3.5625 L 213.375,266.9375 c -1.99698,0.20917 -4.01573,0.35927 -6.0625,0.4375 -0.0104,4e-4 -0.0208,-4e-4 -0.0312,0 -1.17232,0.0444 -2.37554,0.0625 -3.5625,0.0625 -1.19736,0 -2.38003,-0.0173 -3.5625,-0.0625 -2.36493,-0.0904 -4.70338,-0.26667 -7,-0.53125 -1.14831,-0.13229 -2.2772,-0.29456 -3.40625,-0.46875 -2.2581,-0.34838 -4.48389,-0.77184 -6.65625,-1.28125 -3.25854,-0.76411 -6.40458,-1.71077 -9.4375,-2.8125 -2.02195,-0.73449 -3.99911,-1.53269 -5.90625,-2.40625 -1.90714,-0.87356 -3.75053,-1.80863 -5.53125,-2.8125 -1.79378,-1.01123 -3.50259,-2.08424 -5.15625,-3.21875 -0.81427,-0.55783 -1.59679,-1.13267 -2.375,-1.71875 -0.007,-0.005 -0.0247,0.005 -0.0312,0 -0.78464,-0.5914 -1.53475,-1.19346 -2.28125,-1.8125 -1.17205,-0.97198 -2.27452,-1.96803 -3.34375,-3 -0.47255,-0.45582 -0.95381,-0.90723 -1.40625,-1.375 -0.005,-0.006 0.005,-0.0257 0,-0.0312 -0.48833,-0.50527 -0.97312,-1.0125 -1.4375,-1.53125 -0.16341,-0.18229 -0.30789,-0.37791 -0.46875,-0.5625 -0.44553,-0.51156 -0.89051,-1.0074 -1.3125,-1.53125 -0.14131,-0.17542 -0.26761,-0.35448 -0.40625,-0.53125 -0.0643,-0.082 -0.12327,-0.16772 -0.1875,-0.25 -0.37001,-0.47777 -0.74345,-0.95024 -1.09375,-1.4375 -0.0221,-0.0307 -0.0404,-0.0631 -0.0625,-0.0937 -0.37079,-0.51822 -0.74564,-1.06522 -1.09375,-1.59375 -0.12503,-0.18984 -0.25293,-0.37137 -0.375,-0.5625 -0.17943,-0.28062 -0.35831,-0.56037 -0.53125,-0.84375 -0.0365,-0.0598 -0.0576,-0.12761 -0.0937,-0.1875 -0.32501,-0.53847 -0.63601,-1.07697 -0.9375,-1.625 -0.36792,-0.67282 -0.72887,-1.34465 -1.0625,-2.03125 -0.39331,-0.80944 -0.7528,-1.60991 -1.09375,-2.4375 -0.33783,-0.81841 -0.65235,-1.63367 -0.9375,-2.46875 -0.57031,-1.67016 -1.0241,-3.3635 -1.375,-5.09375 -0.3509,-1.73025 -0.59888,-3.4997 -0.71875,-5.28125 -0.0599,-0.89078 -0.0937,-1.78554 -0.0937,-2.6875 z m 138.75,7.90625 c -0.26074,0.0345 -0.52177,0.0878 -0.78125,0.125 -0.17542,0.84437 -0.39929,1.66892 -0.625,2.5 -0.89041,3.27855 -2.18089,6.44469 -3.84375,9.46875 -0.0629,0.11446 -0.12349,0.2297 -0.1875,0.34375 -0.16753,0.29851 -0.35662,0.57927 -0.53125,0.875 -0.17008,0.28755 -0.32295,0.59002 -0.5,0.875 -0.23817,0.38455 -0.49989,0.77676 -0.75,1.15625 -0.11819,0.17837 -0.22294,0.35403 -0.34375,0.53125 -0.0967,0.1426 -0.21415,0.26441 -0.3125,0.40625 -0.68463,0.98268 -1.3969,1.96349 -2.15625,2.90625 -0.61249,0.76108 -1.24461,1.51517 -1.90625,2.25 -0.59486,0.66126 -1.20908,1.29788 -1.84375,1.9375 -1.33171,1.34205 -2.757,2.63691 -4.25,3.875 -0.74057,0.61366 -1.50318,1.22602 -2.28125,1.8125 -1.56929,1.18286 -3.1931,2.30928 -4.90625,3.375 -0.85615,0.53302 -1.73506,1.06039 -2.625,1.5625 -0.008,0.004 -0.0233,-0.004 -0.0312,0 -1.77338,0.99884 -3.60134,1.94282 -5.5,2.8125 -1.91515,0.87804 -3.90649,1.66851 -5.9375,2.40625 -2.16857,0.78686 -4.40466,1.50379 -6.6875,2.125 0.0248,12.73077 7.58696,24.13056 19.5,31.8125 16.12008,-9.5759 26.5,-24.40426 26.5,-41.0625 l 0,-32.09375 z m -59.625,43.875 c 0.002,0.031 -0.002,0.0627 0,0.0937 0.0599,0.89078 0.16041,1.77491 0.28125,2.65625 -0.12255,-0.90911 -0.19011,-1.82776 -0.25,-2.75 -0.0102,10e-4 -0.021,-0.001 -0.0312,0 z m 0.71875,5.375 c 0.3509,1.73025 0.80469,3.42359 1.375,5.09375 0.28515,0.83508 0.59967,1.65034 0.9375,2.46875 -1.00605,-2.44373 -1.78879,-4.98014 -2.3125,-7.5625 z m 2.34375,7.59375 c 0.33625,0.81398 0.67527,1.60932 1.0625,2.40625 0.33363,0.6866 0.69458,1.35843 1.0625,2.03125 -0.79992,-1.45422 -1.49889,-2.92065 -2.125,-4.4375 z m 3.0625,6.0625 c 0.0361,0.0599 0.0573,0.1277 0.0937,0.1875 0.17294,0.28338 0.35182,0.56313 0.53125,0.84375 -0.21458,-0.33625 -0.41975,-0.69106 -0.625,-1.03125 z m 7.0625,9.125 c 0.005,0.005 -0.005,0.0253 0,0.0312 0.16779,0.17348 0.35744,0.32996 0.53125,0.5 -0.17816,-0.17955 -0.35609,-0.34993 -0.53125,-0.53125 z m 0.53125,0.53125 c 0.29485,0.28845 0.5777,0.58823 0.875,0.875 0.38654,0.37307 0.79056,0.72951 1.1875,1.09375 -0.7069,-0.64561 -1.39665,-1.2977 -2.0625,-1.96875 z m 2.0625,1.96875 c 0.70107,0.64331 1.40791,1.28565 2.15625,1.90625 -0.74012,-0.61426 -1.45509,-1.26589 -2.15625,-1.90625 z"
         style="fill:url(#linearGradient5097);stroke:none" /><path
         inkscape:connector-curvature="0"
         id="path4449"
         transform="matrix(28.222223,0,0,28.222223,-1.3919578e-4,0)"
         d="m 203.71875,173.25 c -30.7484,0 -55.6875,18.74389 -55.6875,41.90625 0,2.68771 0.35178,5.32261 1,7.875 12.69692,-12.24073 32.46657,-20.125 54.6875,-20.125 22.21671,0 41.9903,7.88825 54.6875,20.125 0.6398,-2.55203 0.96875,-5.18609 0.96875,-7.875 0,-23.16236 -24.90785,-41.90625 -55.65625,-41.90625 z"
         style="fill:url(#linearGradient5099);stroke:none" /><path
         inkscape:connector-curvature="0"
         transform="matrix(28.222223,0,0,28.222223,-1.3919578e-4,0)"
         id="path4469"
         d="m 430.875,215.15625 c 0,1.80392 -0.10692,3.58674 -0.34375,5.34375 -0.23683,1.75701 -0.60045,3.48618 -1.0625,5.1875 -0.8904,3.27855 -2.18091,6.44469 -3.84375,9.46875 -0.0629,0.11446 -0.12347,0.2297 -0.1875,0.34375 -0.16753,0.29851 -0.3566,0.57927 -0.53125,0.875 -0.17008,0.28755 -0.32294,0.59002 -0.5,0.875 -0.23818,0.38455 -0.49988,0.77676 -0.75,1.15625 -0.11817,0.17837 -0.22296,0.35403 -0.34375,0.53125 -0.0967,0.1426 -0.21417,0.26441 -0.3125,0.40625 -0.68464,0.98268 -1.39688,1.96349 -2.15625,2.90625 -0.61246,0.76108 -1.24461,1.51517 -1.90625,2.25 -0.59489,0.66126 -1.20907,1.29788 -1.84375,1.9375 -1.33172,1.34205 -2.75703,2.63691 -4.25,3.875 -0.74059,0.61366 -1.50321,1.22602 -2.28125,1.8125 -1.5693,1.18286 -3.1931,2.30928 -4.90625,3.375 -0.85613,0.53302 -1.73506,1.06039 -2.625,1.5625 -0.008,0.004 -0.0233,-0.004 -0.0312,0 -1.77335,0.99884 -3.60132,1.94282 -5.5,2.8125 -1.91516,0.87804 -3.90651,1.66851 -5.9375,2.40625 -3.02446,1.09741 -6.1576,2.05071 -9.40625,2.8125 -0.01,0.002 -0.0214,-0.002 -0.0312,0 -2.16298,0.50641 -4.37709,0.93444 -6.625,1.28125 -1.13903,0.17612 -2.27887,0.33528 -3.4375,0.46875 -2.28678,0.26266 -4.61426,0.44126 -6.96875,0.53125 -0.0104,3.9e-4 -0.0209,-3.9e-4 -0.0312,0 -1.17234,0.0444 -2.37553,0.0625 -3.5625,0.0625 -1.19735,0 -2.38003,-0.0173 -3.5625,-0.0625 -1.96318,-0.075 -3.89486,-0.21155 -5.8125,-0.40625 l 0,37.375 c 0,0.86003 -0.008,1.71261 -0.0625,2.5625 3.08438,0.31857 6.23554,0.53125 9.4375,0.53125 38.31566,0 69.375,-23.41858 69.375,-52.28125 l 0,-40 z m -138.71875,7.875 0.15625,28.5625 c -0.1054,1.17534 -0.1875,2.36702 -0.1875,3.5625 0,1.34768 0.0857,2.67789 0.21875,4 0.004,0.0413 -0.004,0.0838 0,0.125 1.55885,15.02477 11.57644,28.28499 26.4375,37.0625 11.97643,-7.66948 19.59418,-19.08841 19.65625,-31.84375 -2.39146,-0.63846 -4.73451,-1.3958 -7,-2.21875 -2.02195,-0.73449 -3.99911,-1.53269 -5.90625,-2.40625 -1.90714,-0.87356 -3.75053,-1.80863 -5.53125,-2.8125 -1.79378,-1.01123 -3.50259,-2.08424 -5.15625,-3.21875 -0.81427,-0.55783 -1.59679,-1.13267 -2.375,-1.71875 -0.007,-0.005 -0.0247,0.005 -0.0312,0 -0.78464,-0.5914 -1.53475,-1.19346 -2.28125,-1.8125 -1.17205,-0.97198 -2.27452,-1.96803 -3.34375,-3 -0.47255,-0.45582 -0.95381,-0.90723 -1.40625,-1.375 -0.005,-0.006 0.005,-0.0257 0,-0.0312 -0.48833,-0.50527 -0.97312,-1.0125 -1.4375,-1.53125 -0.16341,-0.18229 -0.30789,-0.37791 -0.46875,-0.5625 -0.44553,-0.51156 -0.89051,-1.0074 -1.3125,-1.53125 -0.14131,-0.17542 -0.26761,-0.35448 -0.40625,-0.53125 -0.0643,-0.082 -0.12327,-0.16772 -0.1875,-0.25 -0.37001,-0.47777 -0.74345,-0.95024 -1.09375,-1.4375 -0.0221,-0.0307 -0.0404,-0.0632 -0.0625,-0.0937 -0.37079,-0.51822 -0.74564,-1.06522 -1.09375,-1.59375 -0.12503,-0.18984 -0.25293,-0.37137 -0.375,-0.5625 -0.17943,-0.28062 -0.35831,-0.56037 -0.53125,-0.84375 -0.0365,-0.0598 -0.0577,-0.12761 -0.0937,-0.1875 -0.32501,-0.53847 -0.63601,-1.07697 -0.9375,-1.625 -0.36792,-0.67282 -0.72887,-1.34465 -1.0625,-2.03125 -0.39331,-0.80944 -0.7528,-1.60991 -1.09375,-2.4375 -0.33783,-0.81841 -0.65235,-1.63367 -0.9375,-2.46875 -0.57031,-1.67016 -1.0241,-3.3635 -1.375,-5.09375 -0.25854,-0.0359 -0.52146,-0.0606 -0.78125,-0.0937 z M 348.1875,281.75 c -0.28968,0.61698 -0.58698,1.23767 -0.90625,1.84375 0.32009,-0.6093 0.61634,-1.22353 0.90625,-1.84375 z m -4.5,7.59375 c -0.31318,0.43152 -0.64001,0.85721 -0.96875,1.28125 0.32603,-0.42672 0.65743,-0.84671 0.96875,-1.28125 z m -0.96875,1.28125 c -0.39959,0.51543 -0.8279,1.02722 -1.25,1.53125 0.20224,-0.24393 0.42719,-0.47295 0.625,-0.71875 0.21321,-0.2647 0.41879,-0.5426 0.625,-0.8125 z m -2.03125,2.46875 c -0.39842,0.45428 -0.8022,0.89951 -1.21875,1.34375 0.23695,-0.25102 0.48771,-0.49317 0.71875,-0.75 0.17416,-0.19342 0.32975,-0.39788 0.5,-0.59375 z m -8.03125,7.5625 c -0.59975,0.46737 -1.22144,0.92459 -1.84375,1.375 0.33474,-0.24342 0.6704,-0.47031 1,-0.71875 0.28543,-0.21515 0.5628,-0.43535 0.84375,-0.65625 z"
         style="fill:url(#linearGradient5101);stroke:none" /><path
         inkscape:connector-curvature="0"
         id="path4471"
         transform="matrix(28.222223,0,0,28.222223,-1.3919578e-4,0)"
         d="m 361.5,173.25 c -30.69281,0 -55.59754,18.67677 -55.6875,41.78125 2.64164,0.70026 5.20332,1.54272 7.6875,2.46875 12.4641,-9.02141 29.35068,-14.59375 48,-14.59375 22.21671,0 41.99027,7.88825 54.6875,20.125 0.63978,-2.55203 0.96875,-5.18609 0.96875,-7.875 0,-23.16236 -24.90786,-41.90625 -55.65625,-41.90625 z"
         style="fill:url(#linearGradient5103);stroke:none" /><path
         id="path4477"
         d="m 10467.806,7460.3695 5.292,1028.3472 c -2.975,33.1707 -5.292,66.8026 -5.292,100.5417 0,38.0345 2.419,75.576 6.174,112.8889 0.113,1.1656 -0.113,2.365 0,3.5278 78.866,760.1438 922.457,1359.0759 1951.743,1359.0759 1081.353,0 1957.917,-660.9239 1957.917,-1475.4926 l 0,-1128.8889 c 0,50.9106 -3.018,101.2257 -9.702,150.8125 -6.684,49.5867 -16.946,98.3877 -29.986,146.4028 -25.129,92.5279 -61.55,181.8834 -108.479,267.2291 -1.775,3.2303 -3.485,6.4827 -5.292,9.7014 -4.728,8.4246 -10.064,16.3483 -14.993,24.6945 -4.8,8.1153 -9.114,16.6516 -14.111,24.6944 -6.722,10.8529 -14.108,21.9219 -21.167,32.632 -3.335,5.034 -6.292,9.9915 -9.701,14.993 -2.729,4.0245 -6.044,7.4622 -8.819,11.4653 -19.322,27.7334 -39.424,55.414 -60.855,82.0208 -17.285,21.4794 -35.125,42.7615 -53.798,63.5 -16.789,18.6623 -34.123,36.6291 -52.035,54.6806 -37.584,37.8756 -77.809,74.4194 -119.944,109.3611 -20.901,17.3188 -42.424,34.601 -64.382,51.1528 -44.289,33.3829 -90.117,65.173 -138.466,95.25 -24.162,15.043 -48.967,29.9265 -74.083,44.0972 -0.226,0.1129 -0.658,-0.1129 -0.881,0 -50.048,28.1895 -101.637,54.8307 -155.222,79.375 -54.05,24.7802 -110.25,47.0891 -167.569,67.9097 -85.357,30.9714 -173.782,57.8756 -265.466,79.375 -0.282,0.057 -0.603,-0.056 -0.88,0 -61.044,14.292 -123.531,26.372 -186.972,36.1598 -32.146,4.9704 -64.315,9.4623 -97.014,13.2291 -64.538,7.4129 -130.225,12.4534 -196.674,14.9931 -0.293,0.011 -0.587,-0.011 -0.88,0 -33.086,1.253 -67.043,1.7639 -100.542,1.7639 -33.792,0 -67.17,-0.4883 -100.542,-1.7639 -66.743,-2.5513 -132.74,-7.526 -197.555,-14.9931 -32.408,-3.7335 -64.268,-8.3131 -96.132,-13.2291 -63.729,-9.8321 -126.546,-21.7831 -187.854,-36.1598 -91.964,-21.5649 -180.752,-48.2817 -266.348,-79.375 -57.064,-20.7289 -112.863,-43.2559 -166.687,-67.9097 -53.824,-24.6538 -105.848,-51.0436 -156.104,-79.375 -50.625,-28.5392 -98.851,-58.8219 -145.521,-90.8403 -22.981,-15.7432 -45.065,-31.9664 -67.028,-48.5069 -0.197,-0.1411 -0.697,0.1411 -0.88,0 -22.145,-16.6906 -43.314,-33.6821 -64.382,-51.1528 -33.078,-27.4314 -64.192,-55.5422 -94.368,-84.6667 -13.337,-12.8642 -26.919,-25.604 -39.688,-38.8055 -0.141,-0.1694 0.141,-0.7253 0,-0.8806 -13.782,-14.2598 -27.464,-28.575 -40.569,-43.2152 -4.612,-5.1447 -8.69,-10.6655 -13.23,-15.875 -12.573,-14.4374 -25.132,-28.4311 -37.041,-43.2153 -3.988,-4.9508 -7.553,-10.0042 -11.465,-14.9931 -1.815,-2.3142 -3.479,-4.7334 -5.292,-7.0555 -10.443,-13.4838 -20.982,-26.8179 -30.868,-40.5695 -0.624,-0.8664 -1.14,-1.7808 -1.764,-2.6444 -10.465,-14.6253 -21.044,-30.0629 -30.868,-44.9792 -3.529,-5.3577 -7.138,-10.4809 -10.583,-15.875 -5.064,-7.9197 -10.113,-15.8149 -14.994,-23.8125 -1.03,-1.6877 -1.625,-3.6014 -2.644,-5.2916 -9.172,-15.1969 -17.95,-30.3945 -26.458,-45.8612 -10.384,-18.9884 -20.571,-37.949 -29.986,-57.3263 -11.101,-22.8442 -21.246,-45.4353 -30.868,-68.7917 -9.535,-23.0974 -18.411,-46.1058 -26.459,-69.6736 -16.095,-47.1357 -28.902,-94.9255 -38.805,-143.757 -9.904,-48.8315 -16.902,-98.7693 -20.285,-149.0486 -1.691,-25.1398 -2.645,-50.3919 -2.645,-75.8472 z"
         style="fill:url(#linearGradient5105);stroke:none"
         inkscape:connector-curvature="0" /><path
         inkscape:connector-curvature="0"
         transform="matrix(28.222223,0,0,28.222223,-1.3919578e-4,0)"
         id="path4479"
         d="m 440.28125,222.4375 c -3.2101,0 -6.34455,0.20146 -9.40625,0.59375 l 0,29.5625 c 3.07505,-0.31449 6.21651,-0.5 9.40625,-0.5 3.21057,0 6.37421,0.18121 9.46875,0.5 0.0246,-0.33204 0.0329,-0.67026 0.0625,-1 l -0.15625,-28.5625 c -3.05144,-0.38972 -6.17562,-0.59375 -9.375,-0.59375 z m 10.15625,0.6875 c 0.35089,1.73025 0.8047,3.42359 1.375,5.09375 0.28517,0.83508 0.59965,1.65034 0.9375,2.46875 -1.00605,-2.44373 -1.78879,-4.98014 -2.3125,-7.5625 z m 15.15625,3.90625 c 4.33841,11.11368 14.63738,20.27446 28.09375,25.46875 -4.33576,-11.1114 -14.63847,-20.28243 -28.09375,-25.46875 z m -50.6875,0.0312 c -13.43537,5.18381 -23.694,14.34796 -28.03125,25.4375 13.41915,-5.19046 23.68097,-14.35742 28.03125,-25.4375 z m 37.875,3.65625 c 0.33624,0.81398 0.67524,1.60932 1.0625,2.40625 0.3336,0.6866 0.69456,1.35843 1.0625,2.03125 -0.79992,-1.45422 -1.49889,-2.92065 -2.125,-4.4375 z m 3.0625,6.0625 c 0.0361,0.0599 0.0573,0.1277 0.0937,0.1875 0.17295,0.28338 0.35182,0.56313 0.53125,0.84375 -0.21458,-0.33625 -0.41975,-0.69106 -0.625,-1.03125 z m 7.0625,9.125 c 0.005,0.006 -0.005,0.0252 0,0.0312 0.16779,0.17348 0.35744,0.32996 0.53125,0.5 -0.17816,-0.17955 -0.35609,-0.34993 -0.53125,-0.53125 z m 0.53125,0.53125 c 0.29484,0.28845 0.57769,0.58823 0.875,0.875 0.38654,0.37307 0.79056,0.72951 1.1875,1.09375 -0.7069,-0.64561 -1.39665,-1.2977 -2.0625,-1.96875 z m 2.0625,1.96875 c 0.70107,0.64331 1.4079,1.28565 2.15625,1.90625 -0.74012,-0.61426 -1.45509,-1.26589 -2.15625,-1.90625 z m 26.53125,14.9375 c 1.03646,0.33512 2.09683,0.64253 3.15625,0.9375 -1.06256,-0.29331 -2.11876,-0.60667 -3.15625,-0.9375 z m 3.15625,0.9375 c 0.25077,0.0698 0.49812,0.1515 0.75,0.21875 5e-5,-0.0105 -2e-5,-0.0208 0,-0.0312 -0.24876,-0.0662 -0.50256,-0.11919 -0.75,-0.1875 z M 387.09375,263.75 c -0.82761,0.2476 -1.65713,0.49472 -2.5,0.71875 2e-5,0.0104 -5e-5,0.0208 0,0.0312 0.84545,-0.22674 1.66935,-0.4956 2.5,-0.75 z m -38.90625,18 c -0.28991,0.62022 -0.58616,1.23445 -0.90625,1.84375 0.31927,-0.60608 0.61657,-1.22677 0.90625,-1.84375 z"
         style="fill:url(#linearGradient5107);stroke:none" /><path
         inkscape:connector-curvature="0"
         id="path4475"
         transform="matrix(28.222223,0,0,28.222223,-1.3919578e-4,0)"
         d="m 440.28125,212.09375 c -3.21469,0 -6.37027,0.1812 -9.46875,0.5 0.0559,0.86014 0.0937,1.72322 0.0937,2.59375 0,2.69469 -0.29041,5.35269 -0.8125,7.9375 3.30566,-0.46048 6.70501,-0.6875 10.1875,-0.6875 25.29898,0 46.63502,12.69514 53.40625,30.09375 4.70322,1.81723 9.79444,3.12671 15.15625,3.875 -5.07124,-25.0984 -33.82512,-44.3125 -68.5625,-44.3125 z m -23.0625,2.96875 c -26.97182,7.16312 -46.3125,26.51241 -46.3125,49.28125 0,28.86267 31.05934,52.28125 69.375,52.28125 37.14611,0 67.46451,-22.01303 69.28125,-49.65625 -4.71182,-0.48485 -9.26379,-1.33912 -13.625,-2.5 -0.0899,23.10465 -24.96352,41.84375 -55.65625,41.84375 -30.74839,0 -55.6875,-18.80639 -55.6875,-41.96875 0,-16.29011 12.35841,-30.37135 30.375,-37.3125 1.46404,-3.75323 2.25,-7.7331 2.25,-11.84375 0,-0.0419 1.6e-4,-0.0831 0,-0.125 z"
         style="fill:url(#radialGradient5109);fill-opacity:1;stroke:none" /><path
         inkscape:connector-curvature="0"
         transform="matrix(28.222223,0,0,28.222223,-1.3919578e-4,0)"
         id="path4650"
         d="m 282.78125,212.09375 c -3.32266,0 -6.58325,0.19106 -9.78125,0.53125 0.0545,0.84992 0.0937,1.70244 0.0937,2.5625 0,2.72423 -0.27912,5.38824 -0.8125,8 3.40349,-0.48936 6.90739,-0.75 10.5,-0.75 4.88476,0 9.61149,0.48635 14.125,1.375 0.65238,0.12687 1.29463,0.2626 1.9375,0.40625 0.64524,0.14604 1.27113,0.30574 1.90625,0.46875 0.61002,0.15657 1.21223,0.29684 1.8125,0.46875 0.0312,0.009 0.0626,0.0224 0.0937,0.0312 0.59613,0.17167 1.19518,0.34474 1.78125,0.53125 0.63358,0.19985 1.25378,0.40747 1.875,0.625 0.19794,0.0696 0.39709,0.14745 0.59375,0.21875 0.39722,0.14367 0.79567,0.28655 1.1875,0.4375 0.003,0.009 -0.003,0.0224 0,0.0312 13.4697,5.1879 23.76428,14.37547 28.09375,25.5 4.70374,1.81533 9.79559,3.12778 15.15625,3.875 -3.88994,-19.25193 -21.72407,-35.02977 -45.5,-41.34375 -1.04606,-0.27768 -2.11902,-0.5413 -3.1875,-0.78125 -0.0419,-0.009 -0.0831,-0.0219 -0.125,-0.0312 -0.80008,-0.17841 -1.59436,-0.34307 -2.40625,-0.5 -0.0615,-0.0119 -0.12596,-0.0195 -0.1875,-0.0312 -0.5955,-0.11405 -1.21096,-0.21014 -1.8125,-0.3125 -0.7884,-0.1336 -1.5767,-0.2617 -2.375,-0.375 -1.15485,-0.16391 -2.32581,-0.31674 -3.5,-0.4375 -3.09848,-0.31868 -6.25406,-0.5 -9.46875,-0.5 z m -23.375,3.0625 c -26.80784,7.22956 -46,26.50704 -46,49.1875 0,28.86267 31.05934,52.28125 69.375,52.28125 37.16001,0 67.48519,-22.02972 69.28125,-49.6875 -4.70835,-0.48405 -9.26595,-1.34138 -13.625,-2.5 -0.0675,23.11908 -24.94959,41.875 -55.65625,41.875 -30.7484,0 -55.6875,-18.80639 -55.6875,-41.96875 0,-16.18238 12.17749,-30.19823 30,-37.1875 1.50263,-3.79822 2.3125,-7.80219 2.3125,-11.96875 0,-0.0105 10e-6,-0.0208 0,-0.0312 z"
         style="fill:url(#radialGradient5111);fill-opacity:1;stroke:none" /></g></g></g></svg>